<?xml version="1.0" encoding="UTF-8"?>
<svg id="Layer_1" data-name="Layer 1" xmlns="http://www.w3.org/2000/svg" version="1.1" viewBox="0 0 436.1 198.9">
  <defs>
    <style>
      .cls-1 {
        fill: #1a1a1a;
      }

      .cls-1, .cls-2, .cls-3 {
        stroke-width: 0px;
      }

      .cls-2 {
        fill: #000;
      }

      .cls-3 {
        fill: #212222;
      }
    </style>
  </defs>
  <path class="cls-1" d="M91.5-100.2h5.4c3.6,0,5.7,1.9,5.7,5.4v4.3c0,3.5-2.2,5.4-5.7,5.4h-5.5v-15.1h0ZM94.1-98v10.5h2.6c2.3,0,3.2-1.2,3.2-3.2v-4.2c0-2-1-3.2-3.3-3.2h-2.6.1Z"/>
  <path class="cls-1" d="M106-100.2h9.8v2.3h-7.2v3.9h6v2.3h-6v4.4h7.2v2.3h-9.8v-15.1h0Z"/>
  <path class="cls-1" d="M120.7-96.4c0,1.1.5,1.5,2.1,2.1l1.6.6c3,1.1,3.8,2.2,3.8,4.5s-1.6,4.3-5.1,4.3-5.2-1.4-5.5-4.6h2.6c.3,1.7,1.1,2.4,3,2.4s2.4-.6,2.4-1.9-.5-1.7-2.3-2.4l-1.5-.5c-2.7-1-3.7-2-3.7-4.3s1.5-4.1,4.9-4.1,4.9,1.7,5.1,4.6h-2.6c0-1.6-.8-2.4-2.5-2.4s-2.2.7-2.2,1.7c0,0-.1,0-.1,0Z"/>
  <path class="cls-1" d="M131.3-100.2h2.6v15.1h-2.6v-15.1Z"/>
  <path class="cls-1" d="M137.2-90.6v-4.1c0-3.7,2.3-5.7,5.9-5.7s5,1.7,5.2,4.4h-2.6c-.2-1.5-1.1-2.2-2.8-2.2s-3.1,1.4-3.1,3.5v4c0,2.1,1.1,3.5,3.2,3.5s2.8-1.2,2.8-2.9v-.7h-3.2v-2.2h5.6v2.6c0,3.8-1.7,5.5-5.4,5.5s-5.7-2-5.7-5.7h0Z"/>
  <path class="cls-1" d="M154.2-96.3v11.1h-2.5v-15.1h3.1l5.6,11.1v-11.1h2.5v15.1h-3.1l-5.6-11.1Z"/>
  <path class="cls-1" d="M180.2-101.4h2.7l-8.2,17.8h-2.8s8.3-17.8,8.3-17.8Z"/>
  <path class="cls-1" d="M194.8-100.2h5.3c2.8,0,4.3,1.4,3.9,3.9v.6c-.4,1.4-1.2,2.2-2.4,2.7,1.5.7,2.2,2,1.9,3.6v.6c-.6,2.5-2.9,3.6-5.7,3.6h-5.8l2.9-15.1h-.1ZM195.8-91.8l-.9,4.4h2.8c1.7,0,2.7-.6,3-1.8v-.5c.4-1.4-.4-2.1-2.1-2.1h-2.8ZM197-98l-.8,4h2.2c1.5,0,2.6-.6,2.8-1.8v-.5c.3-1.1-.3-1.7-1.6-1.7h-2.6Z"/>
  <path class="cls-1" d="M214.3-88.4h-5.6l-1.7,3.2h-2.9l8.3-15.1h2.8l2.4,15.1h-2.8s-.5-3.2-.5-3.2ZM213.1-96.8l-3.3,6.1h4.2s-.9-6.1-.9-6.1Z"/>
  <path class="cls-1" d="M225.5-90.8h-2l-1.1,5.6h-2.6l2.9-15.1h5.1c2.8,0,4.7,1.7,4.2,4.4v.7c-.5,2.2-2,3.5-4,4l2.3,5.9h-2.9l-2-5.6h0ZM224.9-98l-1,4.9h2.2c1.6,0,2.8-.7,3.1-2.2v-.6c.4-1.4-.5-2.2-1.9-2.2h-2.5.1Z"/>
  <path class="cls-1" d="M241.8-88.4h-5.6l-1.7,3.2h-2.9l8.3-15.1h2.8l2.4,15.1h-2.8l-.5-3.2ZM240.6-96.8l-3.3,6.1h4.2l-.9-6.1Z"/>
  <path class="cls-1" d="M250.3-100.2h5c3.6,0,5.7,2.2,5.1,5.5l-.8,4.2c-.6,3.4-3,5.4-6.5,5.4h-5.6l2.9-15.1h0ZM252.5-98l-2.1,10.5h2.6c2.2,0,3.5-1.2,3.9-3.2l.8-4.2c.4-2-.5-3.2-2.6-3.2h-2.6,0Z"/>
  <path class="cls-1" d="M264.8-100.2h2.6l-2.9,15.1h-2.6l2.9-15.1Z"/>
  <path class="cls-1" d="M276.2-98l-2.5,12.8h-2.6l2.5-12.8h-4.3l.4-2.3h11.2l-.4,2.3h-4.3,0Z"/>
  <path class="cls-1" d="M284.6-96.5c-.2,1.2.3,1.6,1.7,2.2l2.2,1c2.1.9,2.8,2.4,2.3,4.6-.5,2.3-2.2,3.8-5.4,3.8s-5.5-1.5-5.3-4.6h2.6c0,1.7.8,2.4,2.6,2.4s2.4-.6,2.6-1.8c.2-1.1-.2-1.7-1.8-2.4l-1.8-.8c-1.9-.8-3-2.1-2.6-4.5.4-2.1,2.2-3.7,5.3-3.7s5.1,1.7,4.7,4.6h-2.6c.2-1.6-.5-2.4-2.1-2.4s-2.2.6-2.4,1.7h0Z"/>
  <path class="cls-1" d="M300.6-89.6c-.2,1.7.7,2.4,2,2.4s2.2-.8,2.5-2.5l2-10.5h2.6l-2.1,10.6c-.6,2.9-2.3,4.7-5.1,4.7s-4.8-1.5-4.4-4.6h2.5Z"/>
  <path class="cls-1" d="M318.8-88.4h-5.6l-1.7,3.2h-2.9l8.3-15.1h2.8l2.4,15.1h-2.8l-.5-3.2h0ZM317.7-96.8l-3.3,6.1h4.2l-.9-6.1h0Z"/>
  <path class="cls-1" d="M329.1-95.8l-2,10.6h-2.6l2.9-15.1h2.8l3.7,10.6,2.1-10.6h2.6l-2.9,15.1h-2.8l-3.7-10.6h-.1Z"/>
  <path class="cls-1" d="M345.3-91.7l-2.4,2.4-.8,4.1h-2.6l2.9-15.1h2.6l-1.4,6.9,6.8-6.9h3.3l-6.5,6.5,4.2,8.5h-3l-3.2-6.5h.1,0Z"/>
  <path class="cls-1" d="M362.2-88.4h-5.6l-1.7,3.2h-2.9l8.3-15.1h2.8l2.4,15.1h-2.8l-.5-3.2h0ZM361.1-96.8l-3.3,6.1h4.2l-.9-6.1h0Z"/>
  <path class="cls-1" d="M199.4-65v5.6h-2.6v-15.1h4.8c3.5,0,5.4,1.6,5.4,4.3v.8c0,2.7-2.1,4.3-5.4,4.3h-2.2ZM199.4-72.1v4.9h2c2,0,2.9-.8,2.9-2.2v-.6c0-1.3-.8-2.2-2.9-2.2h-2Z"/>
  <path class="cls-1" d="M212.2-59.4h-2.6v-15.1h4.8c3.5,0,5.4,1.6,5.4,4.3v.8c0,1.9-1.1,3.3-2.9,3.9l3.5,6h-2.9l-3.1-5.6h-2.1v5.6h-.1ZM212.2-72.1v4.9h2c2,0,2.9-.8,2.9-2.2v-.6c0-1.3-.8-2.2-2.9-2.2h-2Z"/>
  <path class="cls-1" d="M222.3-64.8v-4.1c0-3.7,2.3-5.7,5.9-5.7s5.9,2,5.9,5.7v4.1c0,3.7-2.3,5.7-5.9,5.7s-5.9-2-5.9-5.7ZM224.9-68.8v4c0,2.1,1.1,3.5,3.3,3.5s3.3-1.4,3.3-3.5v-4c0-2.1-1.1-3.5-3.3-3.5s-3.3,1.4-3.3,3.5Z"/>
  <path class="cls-1" d="M236.9-64.8v-4.1c0-3.7,2.3-5.7,5.9-5.7s5,1.7,5.2,4.4h-2.6c-.2-1.5-1.1-2.2-2.8-2.2s-3.1,1.4-3.1,3.5v4c0,2.1,1.1,3.5,3.2,3.5s2.8-1.2,2.8-2.9v-.7h-3.2v-2.2h5.6v2.6c0,3.8-1.7,5.5-5.4,5.5s-5.7-2-5.7-5.7h.1Z"/>
  <path class="cls-1" d="M254-59.4h-2.6v-15.1h4.8c3.5,0,5.4,1.6,5.4,4.3v.8c0,1.9-1.1,3.3-2.9,3.9l3.5,6h-2.9l-3.1-5.6h-2.1v5.6h0ZM254-72.1v4.9h2c2,0,2.9-.8,2.9-2.2v-.6c0-1.3-.8-2.2-2.9-2.2h-2Z"/>
  <path class="cls-1" d="M272.6-62.6h-5.7l-1.1,3.2h-2.7l5.4-15.1h2.8l5.4,15.1h-2.8l-1.1-3.2h-.2,0ZM269.7-71.2l-2.2,6.4h4.3l-2.2-6.4h0Z"/>
  <path class="cls-1" d="M281.4-70v10.7h-2.5v-15.1h3.2l4.6,9.7,4.7-9.7h2.9v15.1h-2.5v-10.7l-4.1,8.2h-2.2l-4.1-8.2h0Z"/>
  <path class="cls-1" d="M313.8-75.6h2.7l-8.2,17.8h-2.8l8.3-17.8Z"/>
  <path class="cls-1" d="M336.2-62.6h-5.6l-1.7,3.2h-2.9l8.3-15.1h2.8l2.4,15.1h-2.8l-.5-3.2h0ZM335.1-70.9l-3.3,6.1h4.2l-.9-6.1h0Z"/>
  <path class="cls-1" d="M345.4-64.8l-1.1,5.5h-2.6l2.9-15.1h5.3c2.9,0,4.5,1.9,4,4.4l-.2,1c-.5,2.6-2.6,4.2-5.6,4.2h-2.8.1ZM346.9-72.1l-1,5.1h2.6c1.5,0,2.6-.8,2.8-2.2v-.7c.4-1.3-.4-2.2-1.7-2.2h-2.7Z"/>
  <path class="cls-1" d="M360.2-65h-2l-1.1,5.6h-2.6l2.9-15.1h5.1c2.8,0,4.7,1.7,4.2,4.4v.7c-.5,2.2-2,3.5-4,4l2.3,5.9h-2.9l-2-5.6h.1ZM359.7-72.1l-1,4.9h2.2c1.6,0,2.8-.7,3.1-2.2v-.6c.4-1.4-.5-2.2-1.9-2.2h-2.5,0Z"/>
  <path class="cls-1" d="M33.7-155.2v-4.1c0-3.7,2.3-5.7,5.7-5.7s5.3,2,5.5,5h-2.6c-.2-1.8-1.1-2.8-2.9-2.8s-3.1,1.4-3.1,3.5v4c0,2.1,1.1,3.5,3.1,3.5s2.8-.9,2.9-2.8h2.6c-.2,3.2-2.2,5-5.3,5s-5.9-2-5.9-5.7h0Z"/>
  <path class="cls-1" d="M56.6-156.5h-6.3v6.7h-2.6v-15h2.6v6.1h6.3v-6.1h2.6v15.1h-2.6v-6.7h0Z"/>
  <path class="cls-1" d="M62.6-155.2v-4.1c0-3.7,2.3-5.7,5.9-5.7s5.9,2,5.9,5.7v4.1c0,3.7-2.3,5.7-5.9,5.7s-5.9-2-5.9-5.7ZM65.2-159.3v4c0,2.1,1.1,3.5,3.3,3.5s3.3-1.4,3.3-3.5v-4c0-2.1-1.1-3.5-3.3-3.5s-3.3,1.4-3.3,3.5Z"/>
  <path class="cls-1" d="M77.2-155.2v-4.1c0-3.7,2.3-5.7,5.9-5.7s5.9,2,5.9,5.7v4.1c0,3.7-2.3,5.7-5.9,5.7s-5.9-2-5.9-5.7ZM79.9-159.3v4c0,2.1,1.1,3.5,3.3,3.5s3.3-1.4,3.3-3.5v-4c0-2.1-1.1-3.5-3.3-3.5s-3.3,1.4-3.3,3.5Z"/>
  <path class="cls-1" d="M94.5-161.1c0,1.1.5,1.5,2.1,2.1l1.6.6c3,1.1,3.8,2.2,3.8,4.5s-1.6,4.3-5.1,4.3-5.2-1.4-5.5-4.6h2.6c.3,1.7,1.1,2.4,3,2.4s2.4-.6,2.4-1.9-.5-1.7-2.3-2.4l-1.5-.5c-2.7-1-3.7-2-3.7-4.3s1.5-4.1,4.9-4.1,4.9,1.7,5.1,4.6h-2.6c0-1.6-.8-2.4-2.5-2.4s-2.2.7-2.2,1.7h-.1,0Z"/>
  <path class="cls-1" d="M105.1-164.8h9.8v2.3h-7.2v3.9h6v2.3h-6v4.4h7.2v2.3h-9.8v-15.2Z"/>
  <path class="cls-1" d="M131.5-153h-5.7l-1.1,3.2h-2.7l5.4-15.1h2.8l5.4,15.1h-2.8l-1.1-3.2h-.2ZM128.7-161.7l-2.2,6.4h4.3l-2.2-6.4h.1Z"/>
  <path class="cls-1" d="M143.6-164.8h5.4c3.6,0,5.7,1.9,5.7,5.4v4.3c0,3.5-2.2,5.4-5.7,5.4h-5.5v-15.1h0ZM146.2-162.6v10.5h2.6c2.3,0,3.2-1.2,3.2-3.2v-4.2c0-2-1-3.2-3.3-3.2h-2.6.1Z"/>
  <path class="cls-1" d="M158-164.8h2.6v15.1h-2.6v-15.1Z"/>
  <path class="cls-1" d="M172.5-153h-5.7l-1.1,3.2h-2.7l5.4-15.1h2.8l5.4,15.1h-2.8l-1.1-3.2h-.2ZM169.6-161.7l-2.2,6.4h4.3l-2.2-6.4h0Z"/>
  <path class="cls-1" d="M178.8-164.8h2.6v12.8h6.6v2.3h-9.3v-15.1h.1Z"/>
  <path class="cls-1" d="M204.1-153h-5.7l-1.1,3.2h-2.7l5.4-15.1h2.8l5.4,15.1h-2.8l-1.1-3.2h-.2ZM201.2-161.7l-2.2,6.4h4.3l-2.2-6.4h0Z"/>
  <path class="cls-1" d="M212.8-160.9v11.1h-2.5v-15h3.1l5.6,11.1v-11.1h2.5v15.1h-3.1l-5.6-11.1h0Z"/>
  <path class="cls-1" d="M225.4-164.8h5.4c3.6,0,5.7,1.9,5.7,5.4v4.3c0,3.5-2.2,5.4-5.7,5.4h-5.5v-15.1h.1ZM228-162.6v10.5h2.6c2.3,0,3.2-1.2,3.2-3.2v-4.2c0-2-1-3.2-3.3-3.2h-2.6.1Z"/>
  <path class="cls-1" d="M245-155.2v-4.1c0-3.7,2.3-5.7,5.7-5.7s5.3,2,5.5,5h-2.6c-.2-1.8-1.1-2.8-2.9-2.8s-3.1,1.4-3.1,3.5v4c0,2.1,1.1,3.5,3.1,3.5s2.8-.9,2.9-2.8h2.6c-.2,3.2-2.2,5-5.3,5s-5.9-2-5.9-5.7h0Z"/>
  <path class="cls-1" d="M259.1-164.8h2.6v12.8h6.6v2.3h-9.3v-15.1h0Z"/>
  <path class="cls-1" d="M270.6-164.8h2.6v15.1h-2.6v-15.1Z"/>
  <path class="cls-1" d="M276.5-155.2v-4.1c0-3.7,2.3-5.7,5.7-5.7s5.3,2,5.5,5h-2.6c-.2-1.8-1.1-2.8-2.9-2.8s-3.1,1.4-3.1,3.5v4c0,2.1,1.1,3.5,3.1,3.5s2.8-.9,2.9-2.8h2.6c-.2,3.2-2.2,5-5.3,5s-5.9-2-5.9-5.7h0Z"/>
  <path class="cls-1" d="M294.9-156.1l-1.7,2.1v4.2h-2.6v-15h2.6v7.3l5.8-7.3h3l-5.4,6.7,5.8,8.4h-3.2l-4.2-6.3h-.1Z"/>
  <path class="cls-1" d="M309.6-155.2v-4.1c0-3.7,2.3-5.7,5.9-5.7s5.9,2,5.9,5.7v4.1c0,3.7-2.3,5.7-5.9,5.7s-5.9-2-5.9-5.7ZM312.2-159.3v4c0,2.1,1.1,3.5,3.3,3.5s3.3-1.4,3.3-3.5v-4c0-2.1-1.1-3.5-3.3-3.5s-3.3,1.4-3.3,3.5Z"/>
  <path class="cls-1" d="M327.4-160.9v11.1h-2.5v-15h3.1l5.6,11.1v-11.1h2.5v15.1h-3.1l-5.6-11.1h0Z"/>
  <path class="cls-1" d="M58.7-139h2.6v15.1h-2.6s0-15.1,0-15.1Z"/>
  <path class="cls-1" d="M70.5-136.8v12.8h-2.6v-12.8h-4.3v-2.3h11.2v2.3h-4.3Z"/>
  <path class="cls-1" d="M88.3-136.8v12.8h-2.6v-12.8h-4.3v-2.3h11.2v2.3h-4.3Z"/>
  <path class="cls-1" d="M94.3-129.4v-4.1c0-3.7,2.3-5.7,5.9-5.7s5.9,2,5.9,5.7v4.1c0,3.7-2.3,5.7-5.9,5.7s-5.9-2-5.9-5.7ZM96.9-133.5v4c0,2.1,1.1,3.5,3.3,3.5s3.3-1.4,3.3-3.5v-4c0-2.1-1.1-3.5-3.3-3.5s-3.3,1.4-3.3,3.5Z"/>
  <path class="cls-1" d="M117.7-134.6v10.7h-2.5v-15.1h3.2l4.6,9.7,4.7-9.7h2.9v15.1h-2.5v-10.7l-4.1,8.2h-2.2l-4.1-8.2h0Z"/>
  <path class="cls-1" d="M142.7-127.2h-5.7l-1.1,3.2h-2.7l5.4-15.1h2.8l5.4,15.1h-2.8l-1.1-3.2s-.2,0-.2,0ZM139.8-135.8l-2.2,6.4h4.3l-2.2-6.4h0Z"/>
  <path class="cls-1" d="M153.2-130.3l-1.7,2.1v4.2h-2.6v-15.1h2.6v7.3l5.8-7.3h3l-5.4,6.7,5.8,8.4h-3.2l-4.2-6.3h-.1Z"/>
  <path class="cls-1" d="M162.7-139h9.8v2.3h-7.2v3.9h6v2.3h-6v4.4h7.2v2.3h-9.8v-15.1h0Z"/>
  <path class="cls-1" d="M181.1-139h2.6v15.1h-2.6v-15.1Z"/>
  <path class="cls-1" d="M193-136.8v12.8h-2.6v-12.8h-4.3v-2.3h11.2v2.3h-4.3,0Z"/>
  <path class="cls-1" d="M207.9-130.2v6.3h-2.6v-15.1h9.4v2.3h-6.8v4.3h5.6v2.3h-5.6,0Z"/>
  <path class="cls-1" d="M227.8-139v10c0,3.4-2.2,5.3-5.5,5.3s-5.5-1.9-5.5-5.3v-10h2.6v9.9c0,1.9.9,3.1,2.8,3.1s2.9-1.2,2.9-3.1v-9.9h2.7Z"/>
  <path class="cls-1" d="M231.4-139h2.6v12.8h6.6v2.3h-9.2v-15.1h0Z"/>
  <path class="cls-1" d="M242.9-139h2.6v12.8h6.6v2.3h-9.2v-15.1h0Z"/>
  <path class="cls-1" d="M262.1-135.2c0,1.1.5,1.5,2.1,2.1l1.6.6c3,1.1,3.8,2.2,3.8,4.5s-1.6,4.3-5.1,4.3-5.2-1.4-5.5-4.6h2.6c.3,1.7,1.1,2.4,3,2.4s2.4-.6,2.4-1.9-.5-1.7-2.3-2.4l-1.5-.5c-2.7-1-3.7-2-3.7-4.3s1.5-4.1,4.9-4.1,4.9,1.7,5.1,4.6h-2.6c-.1-1.6-.8-2.4-2.5-2.4s-2.2.7-2.2,1.7h-.1Z"/>
  <path class="cls-1" d="M272.2-129.4v-4.1c0-3.7,2.3-5.7,5.7-5.7s5.3,2,5.5,5h-2.6c-.2-1.8-1.1-2.8-2.9-2.8s-3.1,1.4-3.1,3.5v4c0,2.1,1.1,3.5,3.1,3.5s2.8-.9,2.9-2.8h2.6c-.2,3.2-2.2,5-5.3,5s-5.9-2-5.9-5.7h0Z"/>
  <path class="cls-1" d="M288.9-124h-2.6v-15.1h4.8c3.5,0,5.4,1.6,5.4,4.3v.8c0,1.9-1.1,3.3-2.9,3.9l3.5,6h-2.9l-3.1-5.6h-2.1v5.6h0ZM288.9-136.8v4.9h2c2,0,2.9-.8,2.9-2.2v-.6c0-1.3-.8-2.2-2.9-2.2h-2Z"/>
  <path class="cls-1" d="M299.5-139h9.8v2.3h-7.2v3.9h6v2.3h-6v4.4h7.2v2.3h-9.8v-15.1h0Z"/>
  <path class="cls-1" d="M312.1-139h9.8v2.3h-7.2v3.9h6v2.3h-6v4.4h7.2v2.3h-9.8v-15.1h0Z"/>
  <path class="cls-1" d="M327.4-135.1v11.1h-2.5v-15.1h3.1l5.6,11.1v-11.1h2.5v15.1h-3.1l-5.6-11.1Z"/>
  <path class="cls-3" d="M29.6,26.4v-4.8c0-4.3,2.7-6.7,6.7-6.7s6.2,2.4,6.5,5.9h-3c-.2-2.1-1.3-3.2-3.4-3.2s-3.6,1.6-3.6,4.1v4.6c0,2.5,1.2,4.1,3.6,4.1s3.2-1,3.4-3.2h3c-.2,3.7-2.6,5.9-6.2,5.9s-6.9-2.3-6.9-6.6Z"/>
  <path class="cls-3" d="M56.5,25h-7.3v7.9h-3V15.2h3v7.1h7.3v-7.1h3v17.6h-3v-7.9Z"/>
  <path class="cls-3" d="M63.5,26.4v-4.8c0-4.3,2.7-6.7,6.9-6.7s6.9,2.3,6.9,6.6v4.8c0,4.3-2.7,6.6-6.9,6.6s-6.9-2.3-6.9-6.6ZM66.5,21.7v4.6c0,2.5,1.2,4.1,3.8,4.1s3.9-1.6,3.9-4.1v-4.6c0-2.5-1.2-4.1-3.9-4.1s-3.8,1.6-3.8,4.1Z"/>
  <path class="cls-3" d="M80.6,26.4v-4.8c0-4.3,2.7-6.7,6.9-6.7s6.9,2.3,6.9,6.6v4.8c0,4.3-2.7,6.6-6.9,6.6s-6.9-2.3-6.9-6.6ZM83.7,21.7v4.6c0,2.5,1.2,4.1,3.8,4.1s3.9-1.6,3.9-4.1v-4.6c0-2.5-1.2-4.1-3.9-4.1s-3.8,1.6-3.8,4.1Z"/>
  <path class="cls-3" d="M100.8,19.6c0,1.3.6,1.8,2.5,2.5l1.8.7c3.5,1.3,4.5,2.6,4.5,5.2s-1.8,5.1-5.9,5.1-6-1.6-6.5-5.4h3c.3,1.9,1.3,2.8,3.5,2.8s2.8-.7,2.8-2.3-.6-2-2.7-2.8l-1.7-.6c-3.2-1.2-4.4-2.4-4.4-5s1.8-4.8,5.7-4.8,5.8,2,5.9,5.4h-3c-.2-1.8-.9-2.8-2.9-2.8s-2.6.9-2.6,2Z"/>
  <path class="cls-3" d="M113.2,15.2h11.4v2.6h-8.4v4.6h7v2.6h-7v5.1h8.4v2.6h-11.4V15.2Z"/>
  <path class="cls-3" d="M145.2,29.1h-6.7l-1.3,3.8h-3.2l6.3-17.6h3.2l6.3,17.6h-3.3l-1.3-3.8ZM141.8,18.9l-2.5,7.5h5.1l-2.5-7.5Z"/>
  <path class="cls-3" d="M159.2,15.2h6.3c4.2,0,6.7,2.3,6.7,6.3v5.1c0,4.1-2.6,6.3-6.6,6.3h-6.4V15.2ZM162.2,17.9v12.3h3.1c2.7,0,3.8-1.4,3.8-3.7v-4.9c0-2.3-1.2-3.7-3.8-3.7h-3Z"/>
  <path class="cls-3" d="M176.1,15.2h3v17.6h-3V15.2Z"/>
  <path class="cls-3" d="M193.1,29.1h-6.7l-1.3,3.8h-3.2l6.3-17.6h3.2l6.3,17.6h-3.3l-1.3-3.8ZM189.7,18.9l-2.5,7.5h5.1l-2.5-7.5Z"/>
  <path class="cls-3" d="M200.4,15.2h3v15h7.8v2.6h-10.8V15.2Z"/>
  <path class="cls-3" d="M213.9,36.5l1.1-6.9h2.9l-1.3,6.9h-2.6Z"/>
  <path class="cls-3" d="M226.7,26.4v-4.8c0-4.3,2.7-6.7,6.7-6.7s6.2,2.4,6.5,5.9h-3c-.2-2.1-1.3-3.2-3.4-3.2s-3.6,1.6-3.6,4.1v4.6c0,2.5,1.2,4.1,3.6,4.1s3.2-1,3.4-3.2h3c-.2,3.7-2.6,5.9-6.2,5.9s-6.9-2.3-6.9-6.6Z"/>
  <path class="cls-3" d="M243.2,15.2h3v15h7.8v2.6h-10.8V15.2Z"/>
  <path class="cls-3" d="M256.6,15.2h3v17.6h-3V15.2Z"/>
  <path class="cls-3" d="M263.5,26.4v-4.8c0-4.3,2.7-6.7,6.7-6.7s6.2,2.4,6.5,5.9h-3c-.2-2.1-1.3-3.2-3.4-3.2s-3.6,1.6-3.6,4.1v4.6c0,2.5,1.2,4.1,3.6,4.1s3.2-1,3.4-3.2h3c-.2,3.7-2.6,5.9-6.2,5.9s-6.9-2.3-6.9-6.6Z"/>
  <path class="cls-3" d="M285,25.5l-2,2.4v4.9h-3V15.2h3v8.6l6.8-8.6h3.5l-6.4,7.8,6.7,9.8h-3.8l-4.9-7.3Z"/>
  <path class="cls-3" d="M302.2,26.4v-4.8c0-4.3,2.7-6.7,6.9-6.7s6.9,2.3,6.9,6.6v4.8c0,4.3-2.7,6.6-6.9,6.6s-6.9-2.3-6.9-6.6ZM305.3,21.7v4.6c0,2.5,1.2,4.1,3.8,4.1s3.9-1.6,3.9-4.1v-4.6c0-2.5-1.2-4.1-3.9-4.1s-3.8,1.6-3.8,4.1Z"/>
  <path class="cls-3" d="M322.9,19.8v13h-2.9V15.2h3.6l6.5,13v-13h2.9v17.6h-3.6l-6.5-13Z"/>
  <path class="cls-3" d="M344.3,15.2h3v17.6h-3V15.2Z"/>
  <path class="cls-3" d="M358.2,17.9v15h-3v-15h-5.1v-2.6h13.1v2.6h-5Z"/>
  <path class="cls-3" d="M382.1,29.1h-6.7l-1.3,3.8h-3.2l6.3-17.6h3.2l6.3,17.6h-3.3l-1.3-3.8ZM378.7,18.9l-2.5,7.5h5.1l-2.5-7.5Z"/>
  <path class="cls-3" d="M392.4,19.8v13h-2.9V15.2h3.6l6.5,13v-13h2.9v17.6h-3.6l-6.5-13Z"/>
  <path class="cls-3" d="M407,15.2h6.3c4.2,0,6.7,2.3,6.7,6.3v5.1c0,4.1-2.6,6.3-6.6,6.3h-6.4V15.2ZM410.1,17.9v12.3h3.1c2.7,0,3.8-1.4,3.8-3.7v-4.9c0-2.3-1.2-3.7-3.8-3.7h-3Z"/>
  <path class="cls-3" d="M30.3,45.4h11.4v2.6h-8.4v4.6h7v2.6h-7v5.1h8.4v2.6h-11.4v-17.6Z"/>
  <path class="cls-3" d="M48,50v13h-2.9v-17.6h3.6l6.5,13v-13h2.9v17.6h-3.6l-6.5-13Z"/>
  <path class="cls-3" d="M64,57.9c.2,1.9,1.1,2.8,2.6,2.8s2.5-1,2.5-2.9v-12.3h3v12.4c0,3.6-2.1,5.5-5.5,5.5s-5.4-1.8-5.6-5.4h3Z"/>
  <path class="cls-3" d="M75.8,56.6v-4.8c0-4.3,2.7-6.7,6.9-6.7s6.9,2.3,6.9,6.6v4.8c0,4.3-2.7,6.6-6.9,6.6s-6.9-2.3-6.9-6.6ZM78.9,51.9v4.6c0,2.5,1.2,4.1,3.8,4.1s3.9-1.6,3.9-4.1v-4.6c0-2.5-1.2-4.1-3.9-4.1s-3.8,1.6-3.8,4.1Z"/>
  <path class="cls-3" d="M97,63v-6.8l-6-10.8h3.4l4.2,8,4.2-8h3.3l-6,10.8v6.8h-3Z"/>
  <path class="cls-3" d="M122.6,48.1v15h-3v-15h-5.1v-2.6h13.1v2.6h-5Z"/>
  <path class="cls-3" d="M140.7,55.2h-7.3v7.9h-3v-17.6h3v7.1h7.3v-7.1h3v17.6h-3v-7.9Z"/>
  <path class="cls-3" d="M148.3,45.4h11.4v2.6h-8.4v4.6h7v2.6h-7v5.1h8.4v2.6h-11.4v-17.6Z"/>
  <path class="cls-3" d="M172.9,55.7v7.3h-3v-17.6h10.9v2.6h-7.9v5h6.5v2.6h-6.5Z"/>
  <path class="cls-3" d="M196.1,45.4v11.7c0,4-2.5,6.2-6.5,6.2s-6.4-2.2-6.4-6.2v-11.7h3.1v11.6c0,2.2,1.1,3.6,3.3,3.6s3.3-1.5,3.3-3.6v-11.6h3.1Z"/>
  <path class="cls-3" d="M200.3,45.4h3v15h7.8v2.6h-10.8v-17.6Z"/>
  <path class="cls-3" d="M213.7,45.4h3v15h7.8v2.6h-10.8v-17.6Z"/>
  <path class="cls-3" d="M236.3,49.8c0,1.3.6,1.8,2.5,2.5l1.8.7c3.5,1.3,4.5,2.6,4.5,5.2s-1.8,5.1-5.9,5.1-6-1.6-6.5-5.4h3c.3,1.9,1.3,2.8,3.5,2.8s2.8-.7,2.8-2.3-.6-2-2.7-2.8l-1.7-.6c-3.2-1.2-4.4-2.4-4.4-5s1.8-4.8,5.7-4.8,5.8,2,5.9,5.4h-3c-.1-1.8-.9-2.8-2.9-2.8s-2.6.9-2.6,2Z"/>
  <path class="cls-3" d="M248,56.6v-4.8c0-4.3,2.7-6.7,6.7-6.7s6.2,2.4,6.5,5.9h-3c-.2-2.1-1.3-3.2-3.4-3.2s-3.6,1.6-3.6,4.1v4.6c0,2.5,1.2,4.1,3.6,4.1s3.2-1,3.4-3.2h3c-.2,3.7-2.6,5.9-6.2,5.9s-6.9-2.3-6.9-6.6Z"/>
  <path class="cls-3" d="M267.5,63h-3v-17.6h5.6c4.2,0,6.3,1.8,6.3,5.1v.9c0,2.2-1.2,3.8-3.4,4.5l4.2,7.1h-3.4l-3.6-6.6h-2.5v6.6ZM267.5,48.1v5.8h2.3c2.3,0,3.4-1,3.4-2.5v-.7c0-1.5-1-2.5-3.4-2.5h-2.3Z"/>
  <path class="cls-3" d="M280,45.4h11.4v2.6h-8.4v4.6h7v2.6h-7v5.1h8.4v2.6h-11.4v-17.6Z"/>
  <path class="cls-3" d="M294.8,45.4h11.4v2.6h-8.4v4.6h7v2.6h-7v5.1h8.4v2.6h-11.4v-17.6Z"/>
  <path class="cls-3" d="M312.5,50v13h-2.9v-17.6h3.6l6.5,13v-13h2.9v17.6h-3.6l-6.5-13Z"/>
  <path class="cls-3" d="M336.9,50.5v12.5h-2.9v-17.6h3.8l5.4,11.3,5.5-11.3h3.4v17.6h-3v-12.5l-4.8,9.6h-2.6l-4.8-9.6Z"/>
  <path class="cls-3" d="M356,56.6v-4.8c0-4.3,2.7-6.7,6.9-6.7s6.9,2.3,6.9,6.6v4.8c0,4.3-2.7,6.6-6.9,6.6s-6.9-2.3-6.9-6.6ZM359.1,51.9v4.6c0,2.5,1.2,4.1,3.8,4.1s3.8-1.6,3.8-4.1v-4.6c0-2.5-1.2-4.1-3.8-4.1s-3.8,1.6-3.8,4.1Z"/>
  <path class="cls-3" d="M373.8,45.4h6.3c4.2,0,6.7,2.3,6.7,6.3v5.1c0,4.1-2.6,6.3-6.6,6.3h-6.4v-17.6ZM376.8,48.1v12.3h3.1c2.7,0,3.8-1.4,3.8-3.7v-4.9c0-2.3-1.2-3.7-3.8-3.7h-3Z"/>
  <path class="cls-3" d="M390.7,45.4h11.4v2.6h-8.4v4.6h7v2.6h-7v5.1h8.4v2.6h-11.4v-17.6Z"/>
  <path class="cls-3" d="M411.8,61.4c0-1.1.8-1.8,1.9-1.8s1.9.7,1.9,1.8-.8,1.9-1.9,1.9-1.9-.8-1.9-1.9ZM412.1,45.4h3.3l-.2,12.3h-2.9l-.2-12.3Z"/>
  <path class="cls-3" d="M33.3,100.6v12.5h-2.9v-17.6h3.8l5.4,11.3,5.5-11.3h3.4v17.6h-3v-12.5l-4.8,9.6h-2.6l-4.8-9.6Z"/>
  <path class="cls-3" d="M62.5,109.3h-6.7l-1.3,3.8h-3.2l6.3-17.6h3.2l6.3,17.6h-3.3l-1.3-3.8ZM59.1,99.2l-2.5,7.5h5.1l-2.5-7.5Z"/>
  <path class="cls-3" d="M69.8,95.5h6.3c4.2,0,6.7,2.3,6.7,6.3v5.1c0,4.1-2.6,6.3-6.6,6.3h-6.4v-17.6ZM72.9,98.1v12.3h3.1c2.7,0,3.8-1.4,3.8-3.7v-4.9c0-2.3-1.2-3.7-3.8-3.7h-3Z"/>
  <path class="cls-3" d="M86.7,95.5h11.4v2.6h-8.4v4.6h7v2.6h-7v5.1h8.4v2.6h-11.4v-17.6Z"/>
  <path class="cls-3" d="M108.3,95.5h5.8c3.7,0,5.9,1.6,5.9,4.6v.7c0,1.4-.7,2.4-1.9,3,1.7.7,2.7,1.9,2.7,3.8v.6c0,3.2-2.4,4.9-5.9,4.9h-6.5v-17.6ZM111.3,98.1v4.7h2.6c1.9,0,2.9-.8,2.9-2.1v-.5c0-1.3-.9-2.1-2.9-2.1h-2.5ZM111.3,105.3v5.2h3.2c2,0,3-1,3-2.4v-.5c0-1.4-1-2.3-3-2.3h-3.2Z"/>
  <path class="cls-3" d="M127.5,113.1v-6.8l-6-10.8h3.4l4.2,8,4.2-8h3.3l-6,10.8v6.8h-3Z"/>
  <path class="cls-3" d="M145.7,95.5h5.8c3.7,0,5.9,1.6,5.9,4.6v.7c0,1.4-.7,2.4-1.9,3,1.7.7,2.7,1.9,2.7,3.8v.6c0,3.2-2.4,4.9-5.9,4.9h-6.5v-17.6ZM148.7,98.1v4.7h2.6c1.9,0,2.9-.8,2.9-2.1v-.5c0-1.3-.9-2.1-2.9-2.1h-2.5ZM148.7,105.3v5.2h3.2c2,0,3-1,3-2.4v-.5c0-1.4-1-2.3-3-2.3h-3.2Z"/>
  <path class="cls-3" d="M171.1,109.3h-6.7l-1.3,3.8h-3.2l6.3-17.6h3.2l6.3,17.6h-3.3l-1.3-3.8ZM167.7,99.2l-2.5,7.5h5.1l-2.5-7.5Z"/>
  <path class="cls-3" d="M181.5,113.1h-3v-17.6h5.6c4.2,0,6.3,1.8,6.3,5.1v.9c0,2.2-1.2,3.8-3.4,4.5l4.2,7.1h-3.4l-3.6-6.6h-2.5v6.6ZM181.5,98.1v5.8h2.3c2.3,0,3.4-1,3.4-2.5v-.7c0-1.5-1-2.5-3.4-2.5h-2.3Z"/>
  <path class="cls-3" d="M203.3,109.3h-6.7l-1.3,3.8h-3.2l6.3-17.6h3.2l6.3,17.6h-3.3l-1.3-3.8ZM199.9,99.2l-2.5,7.5h5.1l-2.5-7.5Z"/>
  <path class="cls-3" d="M210.6,95.5h6.3c4.2,0,6.7,2.3,6.7,6.3v5.1c0,4.1-2.6,6.3-6.6,6.3h-6.4v-17.6ZM213.7,98.1v12.3h3.1c2.7,0,3.8-1.4,3.8-3.7v-4.9c0-2.3-1.2-3.7-3.8-3.7h-3Z"/>
  <path class="cls-3" d="M227.5,95.5h3v17.6h-3v-17.6Z"/>
  <path class="cls-3" d="M241.4,98.1v15h-3v-15h-5.1v-2.6h13.1v2.6h-5Z"/>
  <path class="cls-3" d="M251.5,99.9c0,1.3.6,1.8,2.5,2.5l1.8.7c3.5,1.3,4.5,2.6,4.5,5.2s-1.8,5.1-5.9,5.1-6-1.6-6.5-5.4h3c.3,1.9,1.3,2.8,3.5,2.8s2.8-.7,2.8-2.3-.6-2-2.7-2.8l-1.7-.6c-3.2-1.2-4.4-2.4-4.4-5s1.8-4.8,5.7-4.8,5.8,2,5.9,5.4h-3c-.2-1.8-.9-2.8-2.9-2.8s-2.6.9-2.6,2Z"/>
  <path class="cls-3" d="M269.3,108c.1,1.9,1.1,2.8,2.6,2.8s2.5-1,2.5-2.9v-12.3h3v12.4c0,3.6-2.1,5.5-5.5,5.5s-5.4-1.8-5.6-5.4h3Z"/>
  <path class="cls-3" d="M290.8,109.3h-6.7l-1.3,3.8h-3.2l6.3-17.6h3.2l6.3,17.6h-3.3l-1.3-3.8ZM287.5,99.2l-2.5,7.5h5.1l-2.5-7.5Z"/>
  <path class="cls-3" d="M301.1,100.1v13h-2.9v-17.6h3.6l6.5,13v-13h2.9v17.6h-3.6l-6.5-13Z"/>
  <path class="cls-3" d="M320.8,105.8l-2,2.4v4.9h-3v-17.6h3v8.6l6.8-8.6h3.5l-6.4,7.8,6.7,9.8h-3.8l-4.9-7.3Z"/>
  <path class="cls-3" d="M341.3,109.3h-6.7l-1.3,3.8h-3.2l6.3-17.6h3.2l6.3,17.6h-3.3l-1.3-3.8ZM337.9,99.2l-2.5,7.5h5.1l-2.5-7.5Z"/>
  <path class="cls-3" d="M364.6,111.3c-1.4,1.3-3.2,1.9-5.2,1.9-3.5,0-6.4-2-6.4-5.5s1.5-4.1,3.7-5.1c-1.1-1.4-1.7-2.4-1.7-3.8,0-2.7,2.2-4.3,5-4.3s4.6,1.5,4.6,4.1-1.5,4-3.4,5l3.3,3.6c.4-.9.7-1.9.8-3.1h2.8c-.3,2-.9,3.7-1.8,5.1l3.4,3.7h-3.7l-1.5-1.7ZM362.9,109.4l-4.4-4.9c-1.4.7-2.2,1.7-2.2,3.1s1.5,2.9,3.3,2.9,2.5-.4,3.3-1.2ZM359.5,101.7c1.3-.5,2.3-1.4,2.3-2.7s-.7-1.9-1.9-1.9-1.9.8-1.9,1.9.5,1.6,1.5,2.7Z"/>
  <path class="cls-3" d="M386.9,109.3h-6.7l-1.3,3.8h-3.2l6.3-17.6h3.2l6.3,17.6h-3.3l-1.3-3.8ZM383.5,99.2l-2.5,7.5h5.1l-2.5-7.5Z"/>
  <path class="cls-3" d="M397.3,106.5v6.6h-3v-17.6h5.6c4.2,0,6.3,1.8,6.3,5.1v.9c0,3.2-2.4,5-6.3,5h-2.6ZM397.3,98.1v5.8h2.3c2.3,0,3.4-1,3.4-2.5v-.7c0-1.5-1-2.5-3.4-2.5h-2.3Z"/>
  <path class="cls-3" d="M412.2,113.1h-3v-17.6h5.6c4.2,0,6.3,1.8,6.3,5.1v.9c0,2.2-1.2,3.8-3.4,4.5l4.2,7.1h-3.4l-3.6-6.6h-2.5v6.6ZM412.2,98.1v5.8h2.3c2.3,0,3.4-1,3.4-2.5v-.7c0-1.5-1-2.5-3.4-2.5h-2.3Z"/>
  <path class="cls-2" d="M1189.1-290.8v-3.8c0-3.4,2.2-5.3,5.3-5.3s4.9,1.9,5.1,4.7h-2.4c-.2-1.7-1-2.6-2.7-2.6s-2.9,1.3-2.9,3.3v3.7c0,2,1,3.2,2.9,3.2s2.6-.8,2.7-2.6h2.4c-.1,3-2.1,4.7-5,4.7s-5.5-1.8-5.5-5.3Z"/>
  <path class="cls-2" d="M1210.4-291.9h-5.8v6.2h-2.4v-14h2.4v5.7h5.8v-5.7h2.4v14h-2.4v-6.2Z"/>
  <path class="cls-2" d="M1216-290.8v-3.8c0-3.4,2.2-5.3,5.5-5.3s5.5,1.9,5.5,5.3v3.8c0,3.4-2.2,5.3-5.5,5.3s-5.5-1.8-5.5-5.3ZM1218.4-294.5v3.7c0,2,1,3.2,3.1,3.2s3.1-1.3,3.1-3.3v-3.7c0-2-1-3.3-3.1-3.3s-3.1,1.3-3.1,3.3Z"/>
  <path class="cls-2" d="M1229.6-290.8v-3.8c0-3.4,2.2-5.3,5.5-5.3s5.5,1.9,5.5,5.3v3.8c0,3.4-2.2,5.3-5.5,5.3s-5.5-1.8-5.5-5.3ZM1232.1-294.5v3.7c0,2,1,3.2,3.1,3.2s3.1-1.3,3.1-3.3v-3.7c0-2-1-3.3-3.1-3.3s-3.1,1.3-3.1,3.3Z"/>
  <path class="cls-2" d="M1245.7-296.2c0,1,.5,1.4,2,2l1.5.6c2.8,1,3.6,2.1,3.6,4.1s-1.5,4-4.7,4-4.8-1.3-5.1-4.3h2.4c.3,1.5,1,2.2,2.8,2.2s2.2-.6,2.2-1.8-.5-1.6-2.2-2.2l-1.4-.5c-2.5-.9-3.5-1.9-3.5-4s1.4-3.8,4.5-3.8,4.6,1.6,4.7,4.3h-2.4c-.1-1.5-.7-2.2-2.3-2.2s-2,.7-2,1.6Z"/>
  <path class="cls-2" d="M1255.5-299.7h9.1v2.1h-6.7v3.6h5.6v2.1h-5.6v4.1h6.7v2.1h-9.1v-14Z"/>
  <path class="cls-2" d="M1280.1-288.7h-5.3l-1,3h-2.5l5-14h2.6l5,14h-2.6l-1-3ZM1277.4-296.7l-2,5.9h4l-2-5.9Z"/>
  <path class="cls-2" d="M1291.3-299.7h5c3.3,0,5.3,1.8,5.3,5v4c0,3.2-2,5-5.3,5h-5.1v-14ZM1293.7-297.6v9.8h2.4c2.1,0,3-1.1,3-3v-3.9c0-1.8-1-3-3-3h-2.4Z"/>
  <path class="cls-2" d="M1304.7-299.7h2.4v14h-2.4v-14Z"/>
  <path class="cls-2" d="M1318.2-288.7h-5.3l-1,3h-2.5l5-14h2.6l5,14h-2.6l-1-3ZM1315.5-296.7l-2,5.9h4l-2-5.9Z"/>
  <path class="cls-2" d="M1324-299.7h2.4v11.9h6.2v2.1h-8.6v-14Z"/>
  <path class="cls-2" d="M1334.7-282.8l.8-5.5h2.3l-1.1,5.5h-2.1Z"/>
  <path class="cls-2" d="M1344.9-290.8v-3.8c0-3.4,2.2-5.3,5.3-5.3s4.9,1.9,5.1,4.7h-2.4c-.2-1.7-1-2.6-2.7-2.6s-2.9,1.3-2.9,3.3v3.7c0,2,1,3.2,2.9,3.2s2.6-.8,2.7-2.6h2.4c-.1,3-2.1,4.7-5,4.7s-5.5-1.8-5.5-5.3Z"/>
  <path class="cls-2" d="M1358-299.7h2.4v11.9h6.2v2.1h-8.6v-14Z"/>
  <path class="cls-2" d="M1368.7-299.7h2.4v14h-2.4v-14Z"/>
  <path class="cls-2" d="M1374.2-290.8v-3.8c0-3.4,2.2-5.3,5.3-5.3s4.9,1.9,5.1,4.7h-2.4c-.2-1.7-1-2.6-2.7-2.6s-2.9,1.3-2.9,3.3v3.7c0,2,1,3.2,2.9,3.2s2.6-.8,2.7-2.6h2.4c-.1,3-2.1,4.7-5,4.7s-5.5-1.8-5.5-5.3Z"/>
  <path class="cls-2" d="M1391.3-291.5l-1.6,1.9v3.9h-2.4v-14h2.4v6.8l5.4-6.8h2.8l-5.1,6.2,5.4,7.8h-3l-3.9-5.8Z"/>
  <path class="cls-2" d="M1404.9-290.8v-3.8c0-3.4,2.2-5.3,5.5-5.3s5.5,1.9,5.5,5.3v3.8c0,3.4-2.2,5.3-5.5,5.3s-5.5-1.8-5.5-5.3ZM1407.4-294.5v3.7c0,2,1,3.2,3.1,3.2s3.1-1.3,3.1-3.3v-3.7c0-2-1-3.3-3.1-3.3s-3.1,1.3-3.1,3.3Z"/>
  <path class="cls-2" d="M1421.4-296v10.3h-2.3v-14h2.9l5.2,10.3v-10.3h2.3v14h-2.9l-5.2-10.3Z"/>
  <path class="cls-2" d="M1438.4-299.7h2.4v14h-2.4v-14Z"/>
  <path class="cls-2" d="M1449.5-297.6v11.9h-2.4v-11.9h-4v-2.1h10.4v2.1h-4Z"/>
  <path class="cls-2" d="M1468.5-288.7h-5.3l-1,3h-2.5l5-14h2.6l5,14h-2.6l-1-3ZM1465.8-296.7l-2,5.9h4l-2-5.9Z"/>
  <path class="cls-2" d="M1476.6-296v10.3h-2.3v-14h2.9l5.2,10.3v-10.3h2.3v14h-2.9l-5.2-10.3Z"/>
  <path class="cls-2" d="M1488.3-299.7h5c3.3,0,5.3,1.8,5.3,5v4c0,3.2-2,5-5.3,5h-5.1v-14ZM1490.7-297.6v9.8h2.4c2.1,0,3-1.1,3-3v-3.9c0-1.8-1-3-3-3h-2.4Z"/>
  <path class="cls-2" d="M1189.6-275.7h9.1v2.1h-6.7v3.6h5.6v2.1h-5.6v4.1h6.7v2.1h-9.1v-14Z"/>
  <path class="cls-2" d="M1203.7-272v10.3h-2.3v-14h2.9l5.2,10.3v-10.3h2.3v14h-2.9l-5.2-10.3Z"/>
  <path class="cls-2" d="M1216.4-265.8c.1,1.5.8,2.2,2,2.2s2-.8,2-2.3v-9.8h2.4v9.8c0,2.8-1.7,4.4-4.4,4.4s-4.3-1.4-4.5-4.3h2.4Z"/>
  <path class="cls-2" d="M1225.8-266.8v-3.8c0-3.4,2.2-5.3,5.5-5.3s5.5,1.9,5.5,5.3v3.8c0,3.4-2.2,5.3-5.5,5.3s-5.5-1.8-5.5-5.3ZM1228.2-270.5v3.7c0,2,1,3.2,3.1,3.2s3.1-1.3,3.1-3.3v-3.7c0-2-1-3.3-3.1-3.3s-3.1,1.3-3.1,3.3Z"/>
  <path class="cls-2" d="M1242.7-261.7v-5.4l-4.8-8.6h2.7l3.3,6.3,3.3-6.3h2.6l-4.8,8.6v5.4h-2.4Z"/>
  <path class="cls-2" d="M1262.2-273.6v11.9h-2.4v-11.9h-4v-2.1h10.4v2.1h-4Z"/>
  <path class="cls-2" d="M1276.6-267.9h-5.8v6.2h-2.4v-14h2.4v5.7h5.8v-5.7h2.4v14h-2.4v-6.2Z"/>
  <path class="cls-2" d="M1282.6-275.7h9.1v2.1h-6.7v3.6h5.6v2.1h-5.6v4.1h6.7v2.1h-9.1v-14Z"/>
  <path class="cls-2" d="M1302.2-267.5v5.8h-2.4v-14h8.7v2.1h-6.3v4h5.2v2.1h-5.2Z"/>
  <path class="cls-2" d="M1320.6-275.7v9.3c0,3.2-2,4.9-5.1,4.9s-5.1-1.7-5.1-4.9v-9.3h2.5v9.2c0,1.7.9,2.9,2.6,2.9s2.7-1.2,2.7-2.9v-9.2h2.5Z"/>
  <path class="cls-2" d="M1323.9-275.7h2.4v11.9h6.2v2.1h-8.6v-14Z"/>
  <path class="cls-2" d="M1334.6-275.7h2.4v11.9h6.2v2.1h-8.6v-14Z"/>
  <path class="cls-2" d="M1352.5-272.2c0,1,.5,1.4,2,2l1.5.6c2.8,1,3.6,2.1,3.6,4.1s-1.5,4-4.7,4-4.8-1.3-5.1-4.3h2.4c.3,1.5,1,2.2,2.8,2.2s2.2-.6,2.2-1.8-.5-1.6-2.2-2.2l-1.4-.5c-2.5-.9-3.5-1.9-3.5-4s1.4-3.8,4.5-3.8,4.6,1.6,4.7,4.3h-2.4c-.1-1.5-.7-2.2-2.3-2.2s-2,.7-2,1.6Z"/>
  <path class="cls-2" d="M1361.9-266.8v-3.8c0-3.4,2.2-5.3,5.3-5.3s4.9,1.9,5.1,4.7h-2.4c-.2-1.7-1-2.6-2.7-2.6s-2.9,1.3-2.9,3.3v3.7c0,2,1,3.2,2.9,3.2s2.6-.8,2.7-2.6h2.4c-.1,3-2.1,4.7-5,4.7s-5.5-1.8-5.5-5.3Z"/>
  <path class="cls-2" d="M1377.4-261.7h-2.4v-14h4.4c3.3,0,5,1.5,5,4v.7c0,1.8-1,3-2.7,3.6l3.3,5.6h-2.7l-2.9-5.2h-2v5.2ZM1377.4-273.6v4.6h1.9c1.8,0,2.7-.8,2.7-2v-.6c0-1.2-.8-2-2.7-2h-1.9Z"/>
  <path class="cls-2" d="M1387.3-275.7h9.1v2.1h-6.7v3.6h5.6v2.1h-5.6v4.1h6.7v2.1h-9.1v-14Z"/>
  <path class="cls-2" d="M1399-275.7h9.1v2.1h-6.7v3.6h5.6v2.1h-5.6v4.1h6.7v2.1h-9.1v-14Z"/>
  <path class="cls-2" d="M1413.2-272v10.3h-2.3v-14h2.9l5.2,10.3v-10.3h2.3v14h-2.9l-5.2-10.3Z"/>
  <path class="cls-2" d="M1432.5-271.6v9.9h-2.3v-14h3l4.3,9,4.4-9h2.7v14h-2.4v-9.9l-3.8,7.7h-2.1l-3.8-7.7Z"/>
  <path class="cls-2" d="M1447.7-266.8v-3.8c0-3.4,2.2-5.3,5.5-5.3s5.5,1.9,5.5,5.3v3.8c0,3.4-2.2,5.3-5.5,5.3s-5.5-1.8-5.5-5.3ZM1450.2-270.5v3.7c0,2,1,3.2,3.1,3.2s3.1-1.3,3.1-3.3v-3.7c0-2-1-3.3-3.1-3.3s-3.1,1.3-3.1,3.3Z"/>
  <path class="cls-2" d="M1461.9-275.7h5c3.3,0,5.3,1.8,5.3,5v4c0,3.2-2,5-5.3,5h-5.1v-14ZM1464.3-273.6v9.8h2.4c2.1,0,3-1.1,3-3v-3.9c0-1.8-1-3-3-3h-2.4Z"/>
  <path class="cls-2" d="M1475.3-275.7h9.1v2.1h-6.7v3.6h5.6v2.1h-5.6v4.1h6.7v2.1h-9.1v-14Z"/>
  <path class="cls-2" d="M1492.1-263c0-.9.6-1.5,1.5-1.5s1.5.6,1.5,1.5-.6,1.5-1.5,1.5-1.5-.6-1.5-1.5ZM1492.3-275.7h2.6v9.8h-2.5l-.2-9.8Z"/>
  <path class="cls-2" d="M1191.2-231.8v9.9h-2.3v-14h3l4.3,9,4.4-9h2.7v14h-2.4v-9.9l-3.8,7.7h-2.1l-3.8-7.7Z"/>
  <path class="cls-2" d="M1214.4-224.9h-5.3l-1,3h-2.5l5-14h2.6l5,14h-2.6l-1-3ZM1211.7-232.9l-2,5.9h4l-2-5.9Z"/>
  <path class="cls-2" d="M1220.2-235.9h5c3.3,0,5.3,1.8,5.3,5v4c0,3.2-2,5-5.3,5h-5.1v-14ZM1222.6-233.8v9.8h2.4c2.1,0,3-1.1,3-3v-3.9c0-1.8-1-3-3-3h-2.4Z"/>
  <path class="cls-2" d="M1233.7-235.9h9.1v2.1h-6.7v3.6h5.6v2.1h-5.6v4.1h6.7v2.1h-9.1v-14Z"/>
  <path class="cls-2" d="M1250.8-235.9h4.6c3,0,4.7,1.3,4.7,3.7v.5c0,1.1-.6,1.9-1.5,2.4,1.4.5,2.1,1.5,2.1,3v.5c0,2.6-1.9,3.9-4.7,3.9h-5.2v-14ZM1253.2-233.8v3.7h2.1c1.5,0,2.3-.7,2.3-1.7v-.4c0-1-.7-1.6-2.3-1.6h-2ZM1253.2-228.1v4.1h2.6c1.6,0,2.4-.8,2.4-1.9v-.4c0-1.1-.8-1.8-2.4-1.8h-2.6Z"/>
  <path class="cls-2" d="M1266-221.9v-5.4l-4.8-8.6h2.7l3.3,6.3,3.3-6.3h2.6l-4.8,8.6v5.4h-2.4Z"/>
  <path class="cls-2" d="M1280.5-235.9h4.6c3,0,4.7,1.3,4.7,3.7v.5c0,1.1-.6,1.9-1.5,2.4,1.4.5,2.1,1.5,2.1,3v.5c0,2.6-1.9,3.9-4.7,3.9h-5.2v-14ZM1283-233.8v3.7h2.1c1.5,0,2.3-.7,2.3-1.7v-.4c0-1-.7-1.6-2.3-1.6h-2ZM1283-228.1v4.1h2.6c1.6,0,2.4-.8,2.4-1.9v-.4c0-1.1-.8-1.8-2.4-1.8h-2.6Z"/>
  <path class="cls-2" d="M1300.7-224.9h-5.3l-1,3h-2.5l5-14h2.6l5,14h-2.6l-1-3ZM1298.1-232.9l-2,5.9h4l-2-5.9Z"/>
  <path class="cls-2" d="M1309-221.9h-2.4v-14h4.4c3.3,0,5,1.5,5,4v.7c0,1.8-1,3-2.7,3.6l3.3,5.6h-2.7l-2.9-5.2h-2v5.2ZM1309-233.8v4.6h1.9c1.8,0,2.7-.8,2.7-2v-.6c0-1.2-.8-2-2.7-2h-1.9Z"/>
  <path class="cls-2" d="M1326.3-224.9h-5.3l-1,3h-2.5l5-14h2.6l5,14h-2.6l-1-3ZM1323.7-232.9l-2,5.9h4l-2-5.9Z"/>
  <path class="cls-2" d="M1332.2-235.9h5c3.3,0,5.3,1.8,5.3,5v4c0,3.2-2,5-5.3,5h-5.1v-14ZM1334.6-233.8v9.8h2.4c2.1,0,3-1.1,3-3v-3.9c0-1.8-1-3-3-3h-2.4Z"/>
  <path class="cls-2" d="M1345.6-235.9h2.4v14h-2.4v-14Z"/>
  <path class="cls-2" d="M1356.6-233.8v11.9h-2.4v-11.9h-4v-2.1h10.4v2.1h-4Z"/>
  <path class="cls-2" d="M1364.6-232.4c0,1,.5,1.4,2,2l1.5.6c2.8,1,3.6,2.1,3.6,4.1s-1.5,4-4.7,4-4.8-1.3-5.1-4.3h2.4c.3,1.5,1,2.2,2.8,2.2s2.2-.6,2.2-1.8-.5-1.6-2.2-2.2l-1.4-.5c-2.5-.9-3.5-1.9-3.5-4s1.4-3.8,4.5-3.8,4.6,1.6,4.7,4.3h-2.4c-.1-1.5-.7-2.2-2.3-2.2s-2,.7-2,1.6Z"/>
  <path class="cls-2" d="M1378.8-226c.1,1.5.8,2.2,2,2.2s2-.8,2-2.3v-9.8h2.4v9.8c0,2.8-1.7,4.4-4.4,4.4s-4.3-1.4-4.5-4.3h2.4Z"/>
  <path class="cls-2" d="M1395.9-224.9h-5.3l-1,3h-2.5l5-14h2.6l5,14h-2.6l-1-3ZM1393.2-232.9l-2,5.9h4l-2-5.9Z"/>
  <path class="cls-2" d="M1404.1-232.2v10.3h-2.3v-14h2.9l5.2,10.3v-10.3h2.3v14h-2.9l-5.2-10.3Z"/>
  <path class="cls-2" d="M1419.7-227.7l-1.6,1.9v3.9h-2.4v-14h2.4v6.8l5.4-6.8h2.8l-5.1,6.2,5.4,7.8h-3l-3.9-5.8Z"/>
  <path class="cls-2" d="M1436-224.9h-5.3l-1,3h-2.5l5-14h2.6l5,14h-2.6l-1-3ZM1433.3-232.9l-2,5.9h4l-2-5.9Z"/>
  <path class="cls-2" d="M1454.6-223.3c-1.1,1-2.5,1.5-4.1,1.5-2.8,0-5.1-1.6-5.1-4.3s1.2-3.2,2.9-4.1c-.9-1.1-1.3-1.9-1.3-3,0-2.2,1.8-3.4,4-3.4s3.7,1.2,3.7,3.2-1.2,3.2-2.7,4l2.6,2.9c.3-.7.6-1.5.7-2.5h2.2c-.2,1.6-.7,3-1.4,4.1l2.7,3h-3l-1.2-1.3ZM1453.2-224.8l-3.5-3.9c-1.1.5-1.8,1.3-1.8,2.5s1.2,2.3,2.7,2.3,2-.3,2.6-1ZM1450.5-230.9c1-.4,1.8-1.1,1.8-2.2s-.6-1.5-1.5-1.5-1.5.7-1.5,1.5.4,1.3,1.2,2.1Z"/>
  <path class="cls-2" d="M1472.3-224.9h-5.3l-1,3h-2.5l5-14h2.6l5,14h-2.6l-1-3ZM1469.6-232.9l-2,5.9h4l-2-5.9Z"/>
  <path class="cls-2" d="M1480.5-227.1v5.2h-2.4v-14h4.4c3.3,0,5,1.5,5,4v.7c0,2.5-1.9,4-5,4h-2.1ZM1480.5-233.8v4.6h1.9c1.8,0,2.7-.8,2.7-2v-.6c0-1.2-.8-2-2.7-2h-1.9Z"/>
  <path class="cls-2" d="M1492.4-221.9h-2.4v-14h4.4c3.3,0,5,1.5,5,4v.7c0,1.8-1,3-2.7,3.6l3.3,5.6h-2.7l-2.9-5.2h-2v5.2ZM1492.4-233.8v4.6h1.9c1.8,0,2.7-.8,2.7-2v-.6c0-1.2-.8-2-2.7-2h-1.9Z"/>
  <path class="cls-1" d="M-64.2,115h5.5s0,17.9,0,17.9h17.9c0,0,0,5.4,0,5.4h-17.8c-3,0-5.5-2.4-5.5-5.4v-17.8c0,0,0,0,0,0Z"/>
</svg>