<?xml version="1.0" encoding="UTF-8"?>
<svg id="Layer_1" data-name="Layer 1" xmlns="http://www.w3.org/2000/svg" version="1.1" viewBox="0 0 56.69 56.69">
  <defs>
    <style>
      .cls-1 {
        fill: #1a1a1a;
        stroke-width: 0px;
      }
    </style>
  </defs>
  <path class="cls-1" d="M28.35,9.38c-10.48,0-18.97,8.49-18.97,18.97s8.49,18.97,18.97,18.97,18.97-8.49,18.97-18.97-8.49-18.97-18.97-18.97ZM42.18,29.57c-.55.43-.95,1.04-1.11,1.76-1.13,4.81-4.93,8.61-9.74,9.74-1.43.34-2.44,1.61-2.44,3.07h0s-1.07,0-1.07,0h0c0-1.47-1.01-2.75-2.44-3.08-4.82-1.13-8.62-4.93-9.75-9.74-.34-1.43-1.61-2.44-3.07-2.44v-1.07c.73,0,1.41-.25,1.96-.68.55-.43.95-1.04,1.11-1.76,1.13-4.81,4.93-8.61,9.75-9.74,1.43-.34,2.44-1.61,2.44-3.08h1.07c0,1.47,1.01,2.75,2.43,3.08,4.82,1.13,8.62,4.93,9.75,9.74.34,1.43,1.61,2.44,3.07,2.44v1.07c-.74,0-1.42.25-1.96.68Z"/>
</svg>