<?xml version="1.0" encoding="UTF-8"?>
<svg id="Layer_1" xmlns="http://www.w3.org/2000/svg" version="1.1" viewBox="0 0 206.3 56.7">
  <!-- Generator: Adobe Illustrator 29.0.0, SVG Export Plug-In . SVG Version: 2.1.0 Build 186)  -->
  <defs>
    <style>
      .st0 {
        fill: #ff6958;
      }
    </style>
  </defs>
  <path class="st0" d="M44.5,12.1l-1,4.5h-11s-.2,0-.2.1l-9.1,27.8h-4.8v-.2l9.1-27.7h-11.8l1-4.5h28-.2Z"/>
  <polygon class="st0" points="73.8 12.1 73.3 13.5 44.2 44.6 38.7 44.6 39.1 43.2 68.3 12.1 73.8 12.1"/>
  <polygon class="st0" points="107.5 13.5 94.8 27.1 100.1 43.3 100.1 44.6 95.5 44.6 95.5 44.5 91.1 31 84.1 37.3 81.7 44.6 76.9 44.6 87.3 12.1 92.3 12.1 87 28.6 87.1 28.6 103 12.1 108 12.1 107.5 13.5"/>
</svg>