<?xml version="1.0" encoding="UTF-8"?>
<svg id="Layer_1" data-name="Layer 1" xmlns="http://www.w3.org/2000/svg" version="1.1" viewBox="0 0 206.3 56.7">
  <defs>
    <style>
      .cls-1 {
        fill: #ff6958;
        stroke-width: 0px;
      }
    </style>
  </defs>
  <path class="cls-1" d="M20.7,43.5l4.1-.5,8.4-29.4h-6.1l-4.4,7.5h-.5l1.3-8.4h24.1l-2.1,8.4h-.5l-1.2-7.5h-6.1l-8.4,29.4,4.2.5v.5h-12.7s0-.5,0-.5Z"/>
  <path class="cls-1" d="M41.3,43.5l4-.5,8.4-29.4-3.5-.4v-.4h11.8v.4l-4,.4-8.4,29.4,3.5.5v.5h-11.8v-.5Z"/>
  <path class="cls-1" d="M59.1,43.8l8.6-30.2-3.5-.4v-.4h7.3l.7.5-8.3,28.5h.2c7.7-15.7,15.1-29,19.9-29.8l4.4,2.1-.2,1.4c-3.1.7-8.1,2.5-11.1,4.8-1.8,2.1-3.5,4.6-5.2,7.5h0c0,.1,3.5-.9,3.5-.9l5.3,15.6,3.3-1.5.2.4-4,2.4-1.3.8-2.4-.8-4.9-15.3c-2.4,4.3-5,9.5-8.2,15.5l-4.5-.3h0Z"/>
  <path class="cls-1" d="M105,43.5l4.1-.5,8.4-29.4h-6.2l-4.4,7.5h-.5l1.3-8.4h24.1l-2.1,8.4h-.5l-1.2-7.5h-6.1l-8.4,29.4,4.2.5v.5h-12.7v-.5h0Z"/>
  <path class="cls-1" d="M146.4,42.6l7.5-29.3-.7-.5h-8v.4l3.9.4-13.6,16.3h-1l-4.5-4-1.1.2-1.6,2.3c2.1,1.6,4.4,2.3,6.5,2.3h1l-10.3,12.3-4,.4v.5h9.2v-.5l-3.9-.4,10.2-12.3h8.9l-3.2,12.5,3.1,1.4,5.5-4-.3-.4-3.9,2.3h0ZM136.9,29.9l12-14.4h.2l-3.7,14.4h-8.5,0Z"/>
  <path class="cls-1" d="M155.3,43.8l8.6-30.2-3.5-.4v-.4h7.3l.7.5-8.3,28.5h.2c7.7-15.7,15.1-29,19.9-29.8l4.4,2.1-.2,1.4c-3.1.7-8.1,2.5-11.1,4.8-1.8,2.1-3.5,4.6-5.2,7.5h0c0,.1,3.5-.9,3.5-.9l5.3,15.6,3.3-1.5.2.4-4,2.4-1.3.8-2.4-.8-4.9-15.3c-2.4,4.3-5,9.5-8.1,15.5l-4.4-.3h0Z"/>
  <polygon class="cls-1" points="101 31.3 88.8 31.3 89.2 29.1 101.4 29.1 101 31.3"/>
</svg>