<?xml version="1.0" encoding="UTF-8"?>
<svg id="Layer_1" data-name="Layer 1" xmlns="http://www.w3.org/2000/svg" version="1.1" viewBox="0 0 56.69 56.69">
  <defs>
    <style>
      .cls-1 {
        fill: #ff6958;
        stroke-width: 0px;
      }
    </style>
  </defs>
  <path class="cls-1" d="M46.46,27.61v1.48c-.55.13-1.07.38-1.5.73-.65.51-1.12,1.25-1.33,2.11-1.36,5.78-5.92,10.34-11.71,11.7-1.44.33-2.52,1.45-2.83,2.85h-1.46c-.33-1.38-1.41-2.52-2.83-2.85-5.8-1.36-10.36-5.92-11.72-11.7-.33-1.44-1.45-2.52-2.83-2.83v-1.49c.55-.13,1.07-.38,1.5-.71.65-.53,1.15-1.25,1.33-2.11,1.36-5.79,5.92-10.35,11.72-11.7,1.42-.34,2.52-1.46,2.83-2.86h1.46c.32,1.4,1.4,2.52,2.83,2.86,5.79,1.34,10.35,5.91,11.71,11.7.33,1.42,1.45,2.51,2.83,2.83h0Z"/>
</svg>