<?xml version="1.0" encoding="UTF-8"?>
<svg id="Layer_1" data-name="Layer 1" xmlns="http://www.w3.org/2000/svg" version="1.1" viewBox="0 0 436.1 198.9">
  <defs>
    <style>
      .cls-1 {
        fill: #e0e0e0;
        stroke-width: 0px;
      }
    </style>
  </defs>
  <path class="cls-1" d="M29.6,26.4v-4.8c0-4.3,2.7-6.7,6.7-6.7s6.2,2.4,6.5,5.9h-3c-.2-2.1-1.3-3.2-3.4-3.2s-3.6,1.6-3.6,4.1v4.6c0,2.5,1.2,4.1,3.6,4.1s3.2-1,3.4-3.2h3c-.2,3.7-2.6,5.9-6.2,5.9s-6.9-2.3-6.9-6.6Z"/>
  <path class="cls-1" d="M56.5,25h-7.3v7.9h-3V15.2h3v7.1h7.3v-7.1h3v17.6h-3v-7.9Z"/>
  <path class="cls-1" d="M63.5,26.4v-4.8c0-4.3,2.7-6.7,6.9-6.7s6.9,2.3,6.9,6.6v4.8c0,4.3-2.7,6.6-6.9,6.6s-6.9-2.3-6.9-6.6ZM66.5,21.7v4.6c0,2.5,1.2,4.1,3.8,4.1s3.9-1.6,3.9-4.1v-4.6c0-2.5-1.2-4.1-3.9-4.1s-3.8,1.6-3.8,4.1Z"/>
  <path class="cls-1" d="M80.6,26.4v-4.8c0-4.3,2.7-6.7,6.9-6.7s6.9,2.3,6.9,6.6v4.8c0,4.3-2.7,6.6-6.9,6.6s-6.9-2.3-6.9-6.6ZM83.7,21.7v4.6c0,2.5,1.2,4.1,3.8,4.1s3.9-1.6,3.9-4.1v-4.6c0-2.5-1.2-4.1-3.9-4.1s-3.8,1.6-3.8,4.1Z"/>
  <path class="cls-1" d="M100.8,19.6c0,1.3.6,1.8,2.5,2.5l1.8.7c3.5,1.3,4.5,2.6,4.5,5.2s-1.8,5.1-5.9,5.1-6-1.6-6.5-5.4h3c.3,1.9,1.3,2.8,3.5,2.8s2.8-.7,2.8-2.3-.6-2-2.7-2.8l-1.7-.6c-3.2-1.2-4.4-2.4-4.4-5s1.8-4.8,5.7-4.8,5.8,2,5.9,5.4h-3c-.2-1.8-.9-2.8-2.9-2.8s-2.6.9-2.6,2Z"/>
  <path class="cls-1" d="M113.2,15.2h11.4v2.6h-8.4v4.6h7v2.6h-7v5.1h8.4v2.6h-11.4V15.2Z"/>
  <path class="cls-1" d="M145.2,29.1h-6.7l-1.3,3.8h-3.2l6.3-17.6h3.2l6.3,17.6h-3.3l-1.3-3.8ZM141.8,18.9l-2.5,7.5h5.1l-2.5-7.5Z"/>
  <path class="cls-1" d="M159.2,15.2h6.3c4.2,0,6.7,2.3,6.7,6.3v5.1c0,4.1-2.6,6.3-6.6,6.3h-6.4V15.2ZM162.2,17.9v12.3h3.1c2.7,0,3.8-1.4,3.8-3.7v-4.9c0-2.3-1.2-3.7-3.8-3.7h-3Z"/>
  <path class="cls-1" d="M176.1,15.2h3v17.6h-3V15.2Z"/>
  <path class="cls-1" d="M193.1,29.1h-6.7l-1.3,3.8h-3.2l6.3-17.6h3.2l6.3,17.6h-3.3l-1.3-3.8ZM189.7,18.9l-2.5,7.5h5.1l-2.5-7.5Z"/>
  <path class="cls-1" d="M200.4,15.2h3v15h7.8v2.6h-10.8V15.2Z"/>
  <path class="cls-1" d="M213.9,36.5l1.1-6.9h2.9l-1.3,6.9h-2.6Z"/>
  <path class="cls-1" d="M226.7,26.4v-4.8c0-4.3,2.7-6.7,6.7-6.7s6.2,2.4,6.5,5.9h-3c-.2-2.1-1.3-3.2-3.4-3.2s-3.6,1.6-3.6,4.1v4.6c0,2.5,1.2,4.1,3.6,4.1s3.2-1,3.4-3.2h3c-.2,3.7-2.6,5.9-6.2,5.9s-6.9-2.3-6.9-6.6Z"/>
  <path class="cls-1" d="M243.2,15.2h3v15h7.8v2.6h-10.8V15.2Z"/>
  <path class="cls-1" d="M256.6,15.2h3v17.6h-3V15.2Z"/>
  <path class="cls-1" d="M263.5,26.4v-4.8c0-4.3,2.7-6.7,6.7-6.7s6.2,2.4,6.5,5.9h-3c-.2-2.1-1.3-3.2-3.4-3.2s-3.6,1.6-3.6,4.1v4.6c0,2.5,1.2,4.1,3.6,4.1s3.2-1,3.4-3.2h3c-.2,3.7-2.6,5.9-6.2,5.9s-6.9-2.3-6.9-6.6Z"/>
  <path class="cls-1" d="M285,25.5l-2,2.4v4.9h-3V15.2h3v8.6l6.8-8.6h3.5l-6.4,7.8,6.7,9.8h-3.8l-4.9-7.3Z"/>
  <path class="cls-1" d="M302.2,26.4v-4.8c0-4.3,2.7-6.7,6.9-6.7s6.9,2.3,6.9,6.6v4.8c0,4.3-2.7,6.6-6.9,6.6s-6.9-2.3-6.9-6.6ZM305.3,21.7v4.6c0,2.5,1.2,4.1,3.8,4.1s3.9-1.6,3.9-4.1v-4.6c0-2.5-1.2-4.1-3.9-4.1s-3.8,1.6-3.8,4.1Z"/>
  <path class="cls-1" d="M322.9,19.8v13h-2.9V15.2h3.6l6.5,13v-13h2.9v17.6h-3.6l-6.5-13Z"/>
  <path class="cls-1" d="M344.3,15.2h3v17.6h-3V15.2Z"/>
  <path class="cls-1" d="M358.2,17.9v15h-3v-15h-5.1v-2.6h13.1v2.6h-5Z"/>
  <path class="cls-1" d="M382.1,29.1h-6.7l-1.3,3.8h-3.2l6.3-17.6h3.2l6.3,17.6h-3.3l-1.3-3.8ZM378.7,18.9l-2.5,7.5h5.1l-2.5-7.5Z"/>
  <path class="cls-1" d="M392.4,19.8v13h-2.9V15.2h3.6l6.5,13v-13h2.9v17.6h-3.6l-6.5-13Z"/>
  <path class="cls-1" d="M407,15.2h6.3c4.2,0,6.7,2.3,6.7,6.3v5.1c0,4.1-2.6,6.3-6.6,6.3h-6.4V15.2ZM410.1,17.9v12.3h3.1c2.7,0,3.8-1.4,3.8-3.7v-4.9c0-2.3-1.2-3.7-3.8-3.7h-3Z"/>
  <path class="cls-1" d="M30.3,45.4h11.4v2.6h-8.4v4.6h7v2.6h-7v5.1h8.4v2.6h-11.4v-17.6Z"/>
  <path class="cls-1" d="M48,50v13h-2.9v-17.6h3.6l6.5,13v-13h2.9v17.6h-3.6l-6.5-13Z"/>
  <path class="cls-1" d="M64,57.9c.2,1.9,1.1,2.8,2.6,2.8s2.5-1,2.5-2.9v-12.3h3v12.4c0,3.6-2.1,5.5-5.5,5.5s-5.4-1.8-5.6-5.4h3Z"/>
  <path class="cls-1" d="M75.8,56.6v-4.8c0-4.3,2.7-6.7,6.9-6.7s6.9,2.3,6.9,6.6v4.8c0,4.3-2.7,6.6-6.9,6.6s-6.9-2.3-6.9-6.6ZM78.9,51.9v4.6c0,2.5,1.2,4.1,3.8,4.1s3.9-1.6,3.9-4.1v-4.6c0-2.5-1.2-4.1-3.9-4.1s-3.8,1.6-3.8,4.1Z"/>
  <path class="cls-1" d="M97,63v-6.8l-6-10.8h3.4l4.2,8,4.2-8h3.3l-6,10.8v6.8h-3Z"/>
  <path class="cls-1" d="M122.6,48.1v15h-3v-15h-5.1v-2.6h13.1v2.6h-5Z"/>
  <path class="cls-1" d="M140.7,55.2h-7.3v7.9h-3v-17.6h3v7.1h7.3v-7.1h3v17.6h-3v-7.9Z"/>
  <path class="cls-1" d="M148.3,45.4h11.4v2.6h-8.4v4.6h7v2.6h-7v5.1h8.4v2.6h-11.4v-17.6Z"/>
  <path class="cls-1" d="M172.9,55.7v7.3h-3v-17.6h10.9v2.6h-7.9v5h6.5v2.6h-6.5Z"/>
  <path class="cls-1" d="M196.1,45.4v11.7c0,4-2.5,6.2-6.5,6.2s-6.4-2.2-6.4-6.2v-11.7h3.1v11.6c0,2.2,1.1,3.6,3.3,3.6s3.3-1.5,3.3-3.6v-11.6h3.1Z"/>
  <path class="cls-1" d="M200.3,45.4h3v15h7.8v2.6h-10.8v-17.6Z"/>
  <path class="cls-1" d="M213.7,45.4h3v15h7.8v2.6h-10.8v-17.6Z"/>
  <path class="cls-1" d="M236.3,49.8c0,1.3.6,1.8,2.5,2.5l1.8.7c3.5,1.3,4.5,2.6,4.5,5.2s-1.8,5.1-5.9,5.1-6-1.6-6.5-5.4h3c.3,1.9,1.3,2.8,3.5,2.8s2.8-.7,2.8-2.3-.6-2-2.7-2.8l-1.7-.6c-3.2-1.2-4.4-2.4-4.4-5s1.8-4.8,5.7-4.8,5.8,2,5.9,5.4h-3c-.1-1.8-.9-2.8-2.9-2.8s-2.6.9-2.6,2Z"/>
  <path class="cls-1" d="M248,56.6v-4.8c0-4.3,2.7-6.7,6.7-6.7s6.2,2.4,6.5,5.9h-3c-.2-2.1-1.3-3.2-3.4-3.2s-3.6,1.6-3.6,4.1v4.6c0,2.5,1.2,4.1,3.6,4.1s3.2-1,3.4-3.2h3c-.2,3.7-2.6,5.9-6.2,5.9s-6.9-2.3-6.9-6.6Z"/>
  <path class="cls-1" d="M267.5,63h-3v-17.6h5.6c4.2,0,6.3,1.8,6.3,5.1v.9c0,2.2-1.2,3.8-3.4,4.5l4.2,7.1h-3.4l-3.6-6.6h-2.5v6.6ZM267.5,48.1v5.8h2.3c2.3,0,3.4-1,3.4-2.5v-.7c0-1.5-1-2.5-3.4-2.5h-2.3Z"/>
  <path class="cls-1" d="M280,45.4h11.4v2.6h-8.4v4.6h7v2.6h-7v5.1h8.4v2.6h-11.4v-17.6Z"/>
  <path class="cls-1" d="M294.8,45.4h11.4v2.6h-8.4v4.6h7v2.6h-7v5.1h8.4v2.6h-11.4v-17.6Z"/>
  <path class="cls-1" d="M312.5,50v13h-2.9v-17.6h3.6l6.5,13v-13h2.9v17.6h-3.6l-6.5-13Z"/>
  <path class="cls-1" d="M336.9,50.5v12.5h-2.9v-17.6h3.8l5.4,11.3,5.5-11.3h3.4v17.6h-3v-12.5l-4.8,9.6h-2.6l-4.8-9.6Z"/>
  <path class="cls-1" d="M356,56.6v-4.8c0-4.3,2.7-6.7,6.9-6.7s6.9,2.3,6.9,6.6v4.8c0,4.3-2.7,6.6-6.9,6.6s-6.9-2.3-6.9-6.6ZM359.1,51.9v4.6c0,2.5,1.2,4.1,3.8,4.1s3.8-1.6,3.8-4.1v-4.6c0-2.5-1.2-4.1-3.8-4.1s-3.8,1.6-3.8,4.1Z"/>
  <path class="cls-1" d="M373.8,45.4h6.3c4.2,0,6.7,2.3,6.7,6.3v5.1c0,4.1-2.6,6.3-6.6,6.3h-6.4v-17.6ZM376.8,48.1v12.3h3.1c2.7,0,3.8-1.4,3.8-3.7v-4.9c0-2.3-1.2-3.7-3.8-3.7h-3Z"/>
  <path class="cls-1" d="M390.7,45.4h11.4v2.6h-8.4v4.6h7v2.6h-7v5.1h8.4v2.6h-11.4v-17.6Z"/>
  <path class="cls-1" d="M411.8,61.4c0-1.1.8-1.8,1.9-1.8s1.9.7,1.9,1.8-.8,1.9-1.9,1.9-1.9-.8-1.9-1.9ZM412.1,45.4h3.3l-.2,12.3h-2.9l-.2-12.3Z"/>
  <path class="cls-1" d="M33.3,100.6v12.5h-2.9v-17.6h3.8l5.4,11.3,5.5-11.3h3.4v17.6h-3v-12.5l-4.8,9.6h-2.6l-4.8-9.6Z"/>
  <path class="cls-1" d="M62.5,109.3h-6.7l-1.3,3.8h-3.2l6.3-17.6h3.2l6.3,17.6h-3.3l-1.3-3.8ZM59.1,99.2l-2.5,7.5h5.1l-2.5-7.5Z"/>
  <path class="cls-1" d="M69.8,95.5h6.3c4.2,0,6.7,2.3,6.7,6.3v5.1c0,4.1-2.6,6.3-6.6,6.3h-6.4v-17.6ZM72.9,98.1v12.3h3.1c2.7,0,3.8-1.4,3.8-3.7v-4.9c0-2.3-1.2-3.7-3.8-3.7h-3Z"/>
  <path class="cls-1" d="M86.7,95.5h11.4v2.6h-8.4v4.6h7v2.6h-7v5.1h8.4v2.6h-11.4v-17.6Z"/>
  <path class="cls-1" d="M108.3,95.5h5.8c3.7,0,5.9,1.6,5.9,4.6v.7c0,1.4-.7,2.4-1.9,3,1.7.7,2.7,1.9,2.7,3.8v.6c0,3.2-2.4,4.9-5.9,4.9h-6.5v-17.6ZM111.3,98.1v4.7h2.6c1.9,0,2.9-.8,2.9-2.1v-.5c0-1.3-.9-2.1-2.9-2.1h-2.5ZM111.3,105.3v5.2h3.2c2,0,3-1,3-2.4v-.5c0-1.4-1-2.3-3-2.3h-3.2Z"/>
  <path class="cls-1" d="M127.5,113.1v-6.8l-6-10.8h3.4l4.2,8,4.2-8h3.3l-6,10.8v6.8h-3Z"/>
  <path class="cls-1" d="M145.7,95.5h5.8c3.7,0,5.9,1.6,5.9,4.6v.7c0,1.4-.7,2.4-1.9,3,1.7.7,2.7,1.9,2.7,3.8v.6c0,3.2-2.4,4.9-5.9,4.9h-6.5v-17.6ZM148.7,98.1v4.7h2.6c1.9,0,2.9-.8,2.9-2.1v-.5c0-1.3-.9-2.1-2.9-2.1h-2.5ZM148.7,105.3v5.2h3.2c2,0,3-1,3-2.4v-.5c0-1.4-1-2.3-3-2.3h-3.2Z"/>
  <path class="cls-1" d="M171.1,109.3h-6.7l-1.3,3.8h-3.2l6.3-17.6h3.2l6.3,17.6h-3.3l-1.3-3.8ZM167.7,99.2l-2.5,7.5h5.1l-2.5-7.5Z"/>
  <path class="cls-1" d="M181.5,113.1h-3v-17.6h5.6c4.2,0,6.3,1.8,6.3,5.1v.9c0,2.2-1.2,3.8-3.4,4.5l4.2,7.1h-3.4l-3.6-6.6h-2.5v6.6ZM181.5,98.1v5.8h2.3c2.3,0,3.4-1,3.4-2.5v-.7c0-1.5-1-2.5-3.4-2.5h-2.3Z"/>
  <path class="cls-1" d="M203.3,109.3h-6.7l-1.3,3.8h-3.2l6.3-17.6h3.2l6.3,17.6h-3.3l-1.3-3.8ZM199.9,99.2l-2.5,7.5h5.1l-2.5-7.5Z"/>
  <path class="cls-1" d="M210.6,95.5h6.3c4.2,0,6.7,2.3,6.7,6.3v5.1c0,4.1-2.6,6.3-6.6,6.3h-6.4v-17.6ZM213.7,98.1v12.3h3.1c2.7,0,3.8-1.4,3.8-3.7v-4.9c0-2.3-1.2-3.7-3.8-3.7h-3Z"/>
  <path class="cls-1" d="M227.5,95.5h3v17.6h-3v-17.6Z"/>
  <path class="cls-1" d="M241.4,98.1v15h-3v-15h-5.1v-2.6h13.1v2.6h-5Z"/>
  <path class="cls-1" d="M251.5,99.9c0,1.3.6,1.8,2.5,2.5l1.8.7c3.5,1.3,4.5,2.6,4.5,5.2s-1.8,5.1-5.9,5.1-6-1.6-6.5-5.4h3c.3,1.9,1.3,2.8,3.5,2.8s2.8-.7,2.8-2.3-.6-2-2.7-2.8l-1.7-.6c-3.2-1.2-4.4-2.4-4.4-5s1.8-4.8,5.7-4.8,5.8,2,5.9,5.4h-3c-.2-1.8-.9-2.8-2.9-2.8s-2.6.9-2.6,2Z"/>
  <path class="cls-1" d="M269.3,108c.1,1.9,1.1,2.8,2.6,2.8s2.5-1,2.5-2.9v-12.3h3v12.4c0,3.6-2.1,5.5-5.5,5.5s-5.4-1.8-5.6-5.4h3Z"/>
  <path class="cls-1" d="M290.8,109.3h-6.7l-1.3,3.8h-3.2l6.3-17.6h3.2l6.3,17.6h-3.3l-1.3-3.8ZM287.5,99.2l-2.5,7.5h5.1l-2.5-7.5Z"/>
  <path class="cls-1" d="M301.1,100.1v13h-2.9v-17.6h3.6l6.5,13v-13h2.9v17.6h-3.6l-6.5-13Z"/>
  <path class="cls-1" d="M320.8,105.8l-2,2.4v4.9h-3v-17.6h3v8.6l6.8-8.6h3.5l-6.4,7.8,6.7,9.8h-3.8l-4.9-7.3Z"/>
  <path class="cls-1" d="M341.3,109.3h-6.7l-1.3,3.8h-3.2l6.3-17.6h3.2l6.3,17.6h-3.3l-1.3-3.8ZM337.9,99.2l-2.5,7.5h5.1l-2.5-7.5Z"/>
  <path class="cls-1" d="M364.6,111.3c-1.4,1.3-3.2,1.9-5.2,1.9-3.5,0-6.4-2-6.4-5.5s1.5-4.1,3.7-5.1c-1.1-1.4-1.7-2.4-1.7-3.8,0-2.7,2.2-4.3,5-4.3s4.6,1.5,4.6,4.1-1.5,4-3.4,5l3.3,3.6c.4-.9.7-1.9.8-3.1h2.8c-.3,2-.9,3.7-1.8,5.1l3.4,3.7h-3.7l-1.5-1.7ZM362.9,109.4l-4.4-4.9c-1.4.7-2.2,1.7-2.2,3.1s1.5,2.9,3.3,2.9,2.5-.4,3.3-1.2ZM359.5,101.7c1.3-.5,2.3-1.4,2.3-2.7s-.7-1.9-1.9-1.9-1.9.8-1.9,1.9.5,1.6,1.5,2.7Z"/>
  <path class="cls-1" d="M386.9,109.3h-6.7l-1.3,3.8h-3.2l6.3-17.6h3.2l6.3,17.6h-3.3l-1.3-3.8ZM383.5,99.2l-2.5,7.5h5.1l-2.5-7.5Z"/>
  <path class="cls-1" d="M397.3,106.5v6.6h-3v-17.6h5.6c4.2,0,6.3,1.8,6.3,5.1v.9c0,3.2-2.4,5-6.3,5h-2.6ZM397.3,98.1v5.8h2.3c2.3,0,3.4-1,3.4-2.5v-.7c0-1.5-1-2.5-3.4-2.5h-2.3Z"/>
  <path class="cls-1" d="M412.2,113.1h-3v-17.6h5.6c4.2,0,6.3,1.8,6.3,5.1v.9c0,2.2-1.2,3.8-3.4,4.5l4.2,7.1h-3.4l-3.6-6.6h-2.5v6.6ZM412.2,98.1v5.8h2.3c2.3,0,3.4-1,3.4-2.5v-.7c0-1.5-1-2.5-3.4-2.5h-2.3Z"/>
</svg>