<?xml version="1.0" encoding="UTF-8"?>
<svg id="Layer_1" data-name="Layer 1" xmlns="http://www.w3.org/2000/svg" version="1.1" viewBox="0 0 206.3 56.7">
  <defs>
    <style>
      .cls-1 {
        fill: #e0e0e0;
        stroke-width: 0px;
      }
    </style>
  </defs>
  <polygon class="cls-1" points="107.5 13.5 94.8 27.1 100.1 43.3 100.1 44.6 95.5 44.6 95.5 44.5 91.1 31 84.1 37.3 81.7 44.6 76.9 44.6 87.3 12.1 92.3 12.1 87 28.6 87.1 28.6 103 12.1 108 12.1 107.5 13.5"/>
  <polygon class="cls-1" points="67.5 43.3 67.5 44.6 63 44.6 62.9 44.5 52.8 13.4 52.8 12.1 57.3 12.1 57.4 12.2 67.5 43.3"/>
  <path class="cls-1" d="M44.5,12.1l-1,4.5h-11c0,0-.2,0-.2.1l-9.1,27.8h-4.8v-.2s9.1-27.7,9.1-27.7c0,0,0,0,0,0,0,0,0,0,0,0h-11.8l1-4.5h28Z"/>
</svg>