<?xml version="1.0" encoding="utf-8"?>
<!-- Generator: Adobe Illustrator 28.3.0, SVG Export Plug-In . SVG Version: 6.00 Build 0)  -->
<svg version="1.1" id="Layer_1" xmlns="http://www.w3.org/2000/svg" xmlns:xlink="http://www.w3.org/1999/xlink" x="0px" y="0px"
	 viewBox="0 0 723.08 723.08" style="enable-background:new 0 0 723.08 723.08;" xml:space="preserve">
<style type="text/css">
	.st0{fill:none;}
	.st1{fill:#333333;}
	.st2{fill:none;stroke:#333333;stroke-width:1.2;stroke-miterlimit:10;}
	.st3{fill:none;stroke:#333333;stroke-width:1.2;stroke-miterlimit:10;stroke-opacity:0;}
	.st4{fill:#F2F2F2;}
</style>
<rect class="st0" width="723.08" height="723.08"/>
<path class="st1" d="M561.95,436.86v0.65l-32.04,45.75l-0.01-0.01v0.01c-0.62-0.01-1.24-0.02-1.86-0.04v-46.37h9.27v23.12
	c-2.45,6.2-4.89,12.41-7.34,18.61c0,0,0.43,0.23,0.64,0.34c9.82-14.03,19.64-28.05,29.46-42.08h1.88L561.95,436.86L561.95,436.86z"
	/>
<rect x="518.77" y="436.86" class="st1" width="1.96" height="46.4"/>
<g>
	<path class="st1" d="M377.5,531.59v0.65l-32.04,45.75l-0.01-0.01v0.01c-0.62-0.01-1.24-0.02-1.86-0.04v-46.37h9.27v23.12
		c-2.45,6.2-4.89,12.41-7.34,18.61c0,0,0.43,0.23,0.64,0.34c9.82-14.03,19.64-28.05,29.46-42.08h1.88V531.59L377.5,531.59z"/>
	<path class="st1" d="M390.23,531.59v0.65l-32.04,45.75c0,0-1.26,0-1.87,0v-0.65l2.58-3.68l5.61-8.02
		c7.95-11.35,15.9-22.7,23.84-34.06h1.88L390.23,531.59L390.23,531.59z"/>
</g>
<path class="st1" d="M186.39,283.94v-0.65l12.41-17.72l9.08-12.97l10.55-15.06c0,0,1.26,0,1.87,0v0.65l-2.58,3.68l-5.61,8.02
	c-1.41,2.02-2.82,4.02-4.23,6.04v28.02h-9.08v-5.66c2.06-5.66,4.12-11.31,6.17-16.96l-0.63-0.34c-1.85,2.63-3.7,5.27-5.54,7.91
	c-3.51,5.01-7.02,10.03-10.53,15.05L186.39,283.94L186.39,283.94z"/>
<polygon class="st1" points="198.81,265.57 198.81,237.54 207.89,237.54 207.89,252.6 "/>
<path class="st1" d="M369.89,144.8v0.65l-12.41,17.72l-9.08,12.97l-10.55,15.06c0,0-1.26,0-1.87,0v-0.65l2.58-3.68l5.61-8.02
	c1.41-2.02,2.82-4.02,4.23-6.04v-28.02h9.08v5.66c-2.06,5.66-4.12,11.31-6.17,16.96l0.63,0.34c1.85-2.63,3.7-5.27,5.54-7.91
	c3.51-5.01,7.02-10.03,10.53-15.05h1.88V144.8L369.89,144.8z"/>
<polygon class="st1" points="356.48,163.17 356.48,191.2 347.4,191.2 347.4,176.14 "/>
<path class="st1" d="M541.73,231.35V232l-32.04,45.75c0,0-1.26,0-1.87,0v-0.65l2.58-3.68l5.61-8.02
	c7.95-11.35,15.9-22.7,23.84-34.06L541.73,231.35L541.73,231.35L541.73,231.35z"/>
<path class="st1" d="M210.72,432.38v0.65l-32.04,45.75l-0.01-0.01v0.01c-0.62-0.01-1.24-0.02-1.86-0.04v-46.37h9.27v23.12
	c-2.45,6.2-4.89,12.41-7.34,18.61c0,0,0.43,0.23,0.64,0.34c9.82-14.03,19.64-28.05,29.46-42.08h1.88V432.38z"/>
<path class="st1" d="M223.44,432.38v0.65l-32.04,45.75c0,0-1.26,0-1.87,0v-0.65l2.58-3.68l5.61-8.02
	c7.95-11.35,15.9-22.7,23.84-34.06L223.44,432.38L223.44,432.38L223.44,432.38z"/>
<path class="st1" d="M461.42,191.72v1.46l-2.25,3.21h-4.24v-1.46c0.75-1.07,1.49-2.13,2.25-3.21H461.42z"/>
<path class="st1" d="M552.92,363.87v-1.46l2.25-3.21h4.24v1.46c-0.75,1.07-1.49,2.13-2.25,3.21H552.92z"/>
<path class="st1" d="M455.45,527.56v1.46l2.25,3.21h4.24v-1.46c-0.75-1.07-1.49-2.13-2.25-3.21H455.45z"/>
<path class="st1" d="M260.93,532.41v-1.46l2.25-3.21h4.24v1.46c-0.75,1.07-1.49,2.13-2.25,3.21H260.93z"/>
<path class="st1" d="M164.47,359.19v1.46l2.25,3.21h4.24v-1.46c-0.75-1.07-1.49-2.13-2.25-3.21H164.47z"/>
<path class="st1" d="M261.65,191.7l0,1.47l2.24,3.21l4.24,0.01l0-1.47c-0.75-1.08-1.49-2.13-2.24-3.21L261.65,191.7z"/>
<path class="st1" d="M394.19,144.8v0.65l-32.04,45.75c0,0-1.26,0-1.87,0v-0.65l2.58-3.68l5.61-8.02
	c7.95-11.35,15.9-22.7,23.84-34.06L394.19,144.8L394.19,144.8L394.19,144.8z"/>
<path class="st1" d="M403.81,144.8v0.65l-32.04,45.75c0,0-1.26,0-1.87,0v-0.65l2.58-3.68l5.61-8.02
	c7.95-11.35,15.9-22.7,23.84-34.06L403.81,144.8L403.81,144.8L403.81,144.8z"/>
<path class="st1" d="M551.35,231.35V232l-32.04,45.75c0,0-1.26,0-1.87,0v-0.65l2.58-3.68l5.61-8.02
	c7.95-11.35,15.9-22.7,23.84-34.06L551.35,231.35L551.35,231.35L551.35,231.35z"/>
<path class="st1" d="M233.56,432.38v0.65l-32.04,45.75c0,0-1.26,0-1.87,0v-0.65l2.58-3.68l5.61-8.02
	c7.95-11.35,15.9-22.7,23.84-34.06L233.56,432.38L233.56,432.38L233.56,432.38z"/>
<path class="st1" d="M243.19,432.38v0.65l-32.04,45.75c0,0-1.26,0-1.87,0v-0.65l2.58-3.68l5.61-8.02
	c7.95-11.35,15.9-22.7,23.84-34.06L243.19,432.38L243.19,432.38L243.19,432.38z"/>
<g>
	<line class="st2" x1="361.54" y1="213.35" x2="361.54" y2="206.35"/>
	<line class="st2" x1="361.54" y1="516.71" x2="361.54" y2="509.7"/>
	<line class="st2" x1="233.2" y1="287.43" x2="227.16" y2="283.94"/>
	<line class="st2" x1="495.93" y1="439.12" x2="489.88" y2="435.63"/>
	<line class="st3" x1="233.2" y1="435.63" x2="227.16" y2="439.12"/>
	<line class="st2" x1="495.93" y1="283.94" x2="489.88" y2="287.43"/>
</g>
<circle class="st2" cx="361.54" cy="361.54" r="0.2"/>
<rect x="360.56" y="222.89" class="st1" width="1.96" height="174.54"/>
<line class="st2" x1="361.54" y1="413.98" x2="361.54" y2="49.56"/>
<g>
	<path class="st1" d="M365.81,260.87h-8.67l0.14,129.52l8.67-0.02L365.81,260.87z M363.38,364.73l-4.6,1.29l-0.44-1.58l1.45-4.17
		l4.6-1.29l0.45,1.58C364.35,361.96,363.87,363.33,363.38,364.73z"/>
	<path class="st4" d="M364.84,360.56c-0.49,1.4-0.97,2.77-1.46,4.17l-4.6,1.29l-0.44-1.58l1.45-4.17l4.6-1.29L364.84,360.56z"/>
</g>
</svg>
