<?xml version="1.0" encoding="UTF-8"?>
<svg id="Layer_1" data-name="Layer 1" xmlns="http://www.w3.org/2000/svg" version="1.1" viewBox="0 0 908.6 908.6">
  <defs>
    <style>
      .cls-1 {
        fill: none;
      }

      .cls-1, .cls-2 {
        stroke-width: 0px;
      }

      .cls-2 {
        fill: #1a1a1a;
      }
    </style>
  </defs>
  <rect class="cls-1" y="0" width="908.6" height="908.6"/>
  <path class="cls-2" d="M607,717.6h-80.8c-28.9,0-38-30.6-12.9-45.9l48.7-29.6-33.5-58,.7-.4.7-.4,33.5,58,44.6-27.1c18.5-11.8,31.7-28.7,37.2-48.5l-61.9-35.7.4-.7.4-.7,61.5,35.5c1.6-6.2,2.4-12.8,2.4-19.5v-88.3l-44.5-1.2v-1.6l44.5-1.2v-109.2l-63.9,36.9-.4-.7-.4-.7,64.7-37.4v-11.3h0c0-38.1-30.9-69-69-69h-12l-.6,1.1-28.3,49-.7-.4-.7-.4,28.3-49,.2-.3h-109l-1.2,44.5h-1.6l-1.2-44.5h-109l27.3,47.3,9.4,16.2-.7.4-.7.4-9.4-16.2-21.9-37.8-5.6-9.7-.3-.6h-11.8c-38.1,0-69,30.9-69,69v11.4l64.6,37.3-.8,1.4-63.8-36.9v109.2l44.5,1.2v1.6l-44.5,1.2v109.2l63.8-36.8.4.7.4.7-64.6,37.3v62.6c0,28.7,16.5,52,39.6,70,0,0,0,0,0,0l6.9,6.2,70.6-122.3.7.4.7.4-70.8,122.6,144,131,1.2-234.8h1.6l1.2,238.5,31.5,28.6s0,0,.1,0c15.4,11.3,30.6,13.1,47.3,13.1h71.8c22.7,0,41.2-18.4,41.2-41.2v-83.8c0-22.7-18.4-41.2-41.2-41.2h0ZM630.4,793.9l-10.2,1.1v-1.2c-.1,0,10-1.1,10-1.1v1.2ZM629.4,786.9l-10,2.1-.3-1.2,10-2.1.2,1.2ZM627.6,780.1l-9.7,3.2-.4-1.2,9.7-3.2.4,1.2ZM625.2,773.6l-9.3,4.1-.5-1.1,9.3-4.2.5,1.1ZM622,767.3l-8.8,5.1-.6-1.1,8.8-5.1.6,1.1h0ZM618.3,761.4l-8.3,6-.7-1,8.3-6,.7,1ZM613.9,755.9l-7.6,6.8-.8-.9,7.6-6.8.8.9ZM608.1,750.1l.9.8-6.8,7.6-.9-.8,6.8-7.6ZM603.6,746.4l-6,8.2-1-.7,6-8.2,1,.7ZM596.7,741.9l1.1.6-5.1,8.8-1.1-.6,5.1-8.8ZM524.9,745.7l6,8.2-1,.7-6-8.2,1-.7ZM519.4,750.1l6.8,7.6-.9.8-6.8-7.6.9-.8ZM514.4,755l7.6,6.8-.8.9-7.6-6.8.8-.9ZM509.9,760.4l8.2,6-.7,1-8.3-6,.7-1h0ZM506,766.2l8.8,5.1-.6,1.1-8.8-5.1.6-1.1h0ZM502.8,772.4l9.3,4.2-.5,1.1-9.3-4.2.5-1.1ZM500.2,778.9l9.7,3.2-.4,1.2-9.7-3.2.4-1.2h0ZM498.3,785.7l10,2.1-.3,1.2-10-2.1.3-1.2ZM497.1,792.6l10.1,1.1v1.2c-.1,0-10.3-1.1-10.3-1.1v-1.2ZM496.7,799c3.4.2,6.8.4,10.2.6v1.2c-3.4.2-6.8.4-10.2.6v-2.5ZM497,806.6l10.1-1.1v1.2c.1,0-10,1.1-10,1.1v-1.2ZM498,813.5l10-2.1.3,1.2-10,2.1-.3-1.2ZM499.8,820.3l9.7-3.2.4,1.2-9.7,3.2-.4-1.2h0ZM502.3,826.9l9.3-4.2.5,1.1-9.3,4.2-.5-1.1ZM505.4,833.2l8.8-5.1.6,1.1-8.8,5.1-.6-1.1h0ZM509.1,839.1l8.3-6,.7,1-8.2,6-.7-1ZM513.6,844.6l7.6-6.8.8.9-7.6,6.8-.8-.9ZM518.5,849.6l6.8-7.6.9.8-6.8,7.6-.9-.8ZM523.9,854.1l6-8.3,1,.7-6,8.2-1-.7h0ZM530.8,858.6l-1.1-.6,5.1-8.8,1.1.6-5.1,8.8h0ZM534.8,751.4l-5.1-8.8,1.1-.6,5.1,8.8-1.1.6h0ZM537.1,738.8l4.1,9.3-1.1.5-4.2-9.3,1.1-.5ZM537.1,861.7l-1.1-.5,4.2-9.3,1.1.5-4.1,9.3ZM543.6,864.1l-1.2-.4,3.2-9.7,1.2.4-3.2,9.7ZM545.6,746.4l-3.2-9.7,1.2-.4,3.2,9.7-1.2.4ZM550.4,865.9l-1.2-.3,2.1-10,1.2.3-2.1,10ZM551.3,744.9l-2.1-10,1.2-.3,2.1,10-1.2.3ZM557.3,866.9h-1.2c0-.1,1.1-10.3,1.1-10.3h1.2c0,.1-1.1,10.3-1.1,10.3ZM557.2,743.9l-1.1-10.2h1.2c0-.1,1.1,10,1.1,10h-1.2ZM562.4,867.2c.2-3.4.4-6.8.6-10.2h1.2c.2,3.4.4,6.8.6,10.2h-2.5ZM564.4,743.5h-1.2l-.6-10.2h2.5c-.2,3.4-.4,6.8-.6,10.2ZM570.1,866.9l-1.1-10.2h1.2c0-.1,1.1,10,1.1,10h-1.2ZM570.3,743.9h-1.2c0-.1,1.1-10.3,1.1-10.3h1.2c0,.1-1.1,10.3-1.1,10.3ZM577,865.9l-2.1-10,1.2-.3,2.1,10-1.2.3ZM576.2,744.9l-1.2-.3,2.1-10,1.2.3-2.1,10ZM583.8,864.1l-3.2-9.7,1.2-.4,3.2,9.7-1.2.4ZM581.9,746.4l-1.2-.4,3.2-9.7,1.2.4-3.2,9.7ZM590.4,861.7l-4.2-9.3,1.1-.5,4.2,9.3-1.1.5ZM587.4,748.7l-1.1-.5,4.2-9.3,1.1.5-4.2,9.3ZM596.7,858.6l-5.1-8.8,1.1-.6,5.1,8.8-1.1.6ZM602.6,854.8l-6-8.2,1-.7,6,8.3-1,.7h0ZM608.1,850.4l-6.8-7.6.9-.8,6.8,7.6-.9.8ZM613.1,845.5l-7.6-6.8.8-.9,7.6,6.8-.8.9ZM617.6,840.1l-8.3-6,.7-1,8.3,6-.7,1ZM621.4,834.3l-8.8-5.1.6-1.1,8.8,5.1-.6,1.1h0ZM624.7,828.1l-9.3-4.2.5-1.1,9.3,4.1-.5,1.1ZM627.2,821.5l-9.7-3.2.4-1.2,9.7,3.2-.4,1.2h0ZM629.1,814.8l-10-2.1.3-1.2,10,2.1-.2,1.2ZM630.3,807.9l-10.2-1.1v-1.2c.1,0,10.3,1.1,10.3,1.1v1.2ZM630.7,801.5l-10.2-.6h0v-1.2h0c3-.2,9.8-.6,10.2-.6v2.5Z"/>
</svg>