<?xml version="1.0" encoding="utf-8"?>
<!-- Generator: Adobe Illustrator 28.3.0, SVG Export Plug-In . SVG Version: 6.00 Build 0)  -->
<svg version="1.1" id="Layer_1" xmlns="http://www.w3.org/2000/svg" xmlns:xlink="http://www.w3.org/1999/xlink" x="0px" y="0px"
	 viewBox="0 0 1137.32 1159.42" style="enable-background:new 0 0 1137.32 1159.42;" xml:space="preserve">
<style type="text/css">
	.st0{fill:#E0E0E0;}
	.st1{fill:#333333;}
	.st2{fill:#FFFFFF;}
	.st3{fill:#FF6958;}
</style>
<rect class="st0" width="1137.32" height="1159.42"/>
<rect y="1979.52" class="st1" width="1137.32" height="1159.42"/>
<g>
	<path class="st1" d="M677.48,760.59v61.12h1.24v-61.12H677.48z"/>
	<path class="st1" d="M762.51,337.21c0-38.13-30.91-69.04-69.04-69.04h-12l-0.63,1.09l-28.31,49.02l-0.69-0.4l-0.69-0.41l28.3-49.02
		l0.17-0.29H570.66l-1.24,44.5h-1.61l-1.24-44.5H457.55l27.3,47.28l9.36,16.19l-0.69,0.4l-0.69,0.41l-9.36-16.2l-21.86-37.84
		l-5.58-9.66l-0.33-0.58h-11.84c-38.12,0-69.04,30.91-69.04,69.04v11.35l64.64,37.31l-0.81,1.4l-63.83-36.85v109.18l44.52,1.24v1.61
		l-44.52,1.24v109.23l63.78-36.82l0.41,0.69l0.4,0.69l-64.59,37.28v62.58c0,28.66,16.46,51.98,39.61,69.98
		c0.01,0.01,0.04,0.04,0.06,0.05l6.87,6.25l70.6-122.31l0.69,0.41l0.69,0.4l-70.76,122.62l144.01,131.03l1.21-234.8h1.61
		l1.23,238.48l31.48,28.64c0.04,0.04,0.07,0.06,0.11,0.09c15.43,11.35,30.65,13.09,47.32,13.09h71.79
		c22.73,0,41.16-18.43,41.16-41.16v-83.84c0-22.73-18.43-41.16-41.16-41.16h-80.79c-28.89,0-37.99-30.63-12.87-45.88l48.72-29.63
		l-33.49-58.01l0.69-0.4l0.71-0.41l33.46,57.97l44.63-27.14c18.52-11.79,31.72-28.74,37.21-48.51l-61.87-35.73l0.4-0.69l0.41-0.69
		l61.5,35.51c1.61-6.25,2.44-12.75,2.44-19.46V463.7l-44.52-1.24v-1.61l44.52-1.24V350.38l-63.93,36.91l-0.4-0.69l-0.41-0.69
		l64.74-37.38v-11.32H762.51z M611.5,800.14l10.15,1.07l-0.14,1.23l-10.15-1.07L611.5,800.14z M611.07,806.51
		c3.41,0.21,6.8,0.41,10.21,0.62v1.24c-3.41,0.21-6.8,0.42-10.21,0.63V806.51z M611.37,814.14l10.15-1.08l0.13,1.24l-10.15,1.07
		L611.37,814.14z M612.39,821.07l9.99-2.12l0.26,1.22l-9.99,2.12L612.39,821.07z M614.15,827.86l9.69-3.15l0.39,1.17l-9.69,3.16
		L614.15,827.86z M616.61,834.42l9.32-4.15l0.5,1.14l-9.32,4.15L616.61,834.42z M619.73,840.71l8.84-5.11l0.62,1.08l-8.84,5.09
		L619.73,840.71z M623.49,846.62l8.27-6l0.72,1l-8.25,6L623.49,846.62z M627.91,852.13l7.59-6.84l0.83,0.93l-7.59,6.83
		L627.91,852.13z M632.82,857.14l6.83-7.6l0.93,0.83l-6.84,7.6L632.82,857.14z M638.22,861.6l6-8.27l1,0.73l-6,8.25L638.22,861.6z
		 M645.14,866.09l-1.07-0.62l5.09-8.84l1.08,0.62L645.14,866.09z M716.95,862.32l-6-8.25l1-0.73l6,8.27L716.95,862.32z
		 M722.44,857.97l-6.83-7.6l0.92-0.83l6.84,7.6L722.44,857.97z M727.45,853.05l-7.6-6.83l0.83-0.93l7.6,6.84L727.45,853.05z
		 M731.91,847.65l-8.27-6l0.73-1l8.27,6L731.91,847.65z M735.78,841.8l-8.84-5.09l0.62-1.08l8.84,5.11L735.78,841.8z M739.02,835.59
		l-9.31-4.15l0.5-1.13l9.32,4.14L739.02,835.59z M741.59,829.07l-9.69-3.15l0.37-1.19l9.7,3.16L741.59,829.07z M743.48,822.31
		l-9.99-2.12l0.26-1.21l9.98,2.12L743.48,822.31z M744.63,815.4l-10.15-1.07l0.14-1.23l10.15,1.07L744.63,815.4z M745.06,809.03
		l-10.21-0.63h-0.01v-1.24h0.01c3.01-0.19,9.81-0.6,10.21-0.62V809.03z M744.77,801.39l-10.15,1.07l-0.14-1.23l10.15-1.07
		L744.77,801.39z M743.72,794.46l-9.98,2.12l-0.26-1.21l9.99-2.12L743.72,794.46z M741.98,787.67l-9.7,3.16l-0.37-1.18l9.69-3.16
		L741.98,787.67z M739.52,781.12l-9.32,4.14l-0.5-1.13l9.31-4.15L739.52,781.12z M736.4,774.83l-8.84,5.11l-0.62-1.08l8.84-5.09
		L736.4,774.83z M732.64,768.92l-8.27,6l-0.73-1l8.27-6L732.64,768.92z M728.28,763.43l-7.6,6.84l-0.83-0.93l7.6-6.83L728.28,763.43
		z M722.44,757.59l0.93,0.83l-6.84,7.6l-0.92-0.83L722.44,757.59z M717.96,753.97l-6,8.25l-1-0.73l6-8.25L717.96,753.97z
		 M711.04,749.47l1.08,0.62l-5.11,8.84l-1.08-0.62L711.04,749.47z M707.01,856.63l5.11,8.84l-1.08,0.62l-5.11-8.84L707.01,856.63z
		 M704.77,746.35l1.13,0.51l-4.15,9.32l-1.13-0.51L704.77,746.35z M701.75,859.39l4.15,9.32l-1.13,0.51l-4.15-9.32L701.75,859.39z
		 M698.2,743.9l1.18,0.38l-3.15,9.69l-1.18-0.37L698.2,743.9z M696.17,861.55l3.16,9.7l-1.18,0.38l-3.16-9.7L696.17,861.55z
		 M691.41,742.15l1.21,0.26l-2.12,9.98l-1.21-0.26L691.41,742.15z M690.44,863.15l2.12,9.98l-1.2,0.26l-2.12-9.98L690.44,863.15z
		 M684.48,741.12l1.23,0.12l-1.07,10.15l-1.23-0.12L684.48,741.12z M684.59,864.15l1.07,10.15l-1.24,0.12l-1.07-10.15L684.59,864.15
		z M679.34,740.81c-0.21,3.41-0.41,6.8-0.62,10.21h-1.25l-0.62-10.21H679.34L679.34,740.81z M678.72,760.59v61.12h-1.24v-61.12
		H678.72z M677.42,864.52h1.24c0.21,3.41,0.41,6.8,0.62,10.21h-2.49C676.99,871.32,677.2,867.93,677.42,864.52z M671.71,741.12
		l1.07,10.14l-1.24,0.14l-1.07-10.15L671.71,741.12z M671.49,864.15l1.23,0.12l-1.07,10.15l-1.23-0.12L671.49,864.15z
		 M664.77,742.15l2.12,9.98l-1.21,0.26l-2.12-9.98L664.77,742.15z M665.63,863.15l1.21,0.26l-2.12,9.98l-1.21-0.26L665.63,863.15z
		 M657.98,743.9l3.16,9.7l-1.18,0.37l-3.16-9.69L657.98,743.9z M659.9,861.55l1.18,0.38l-3.15,9.7l-1.18-0.38L659.9,861.55z
		 M651.42,746.35l4.14,9.32l-1.13,0.51l-4.15-9.32L651.42,746.35z M654.44,859.39l1.13,0.51l-4.14,9.32l-1.14-0.51L654.44,859.39z
		 M645.14,749.47l5.11,8.84l-1.08,0.62l-5.09-8.84L645.14,749.47z M639.23,753.24l6,8.25l-1,0.73l-6-8.25L639.23,753.24z
		 M633.74,757.59l6.84,7.6l-0.93,0.83l-6.83-7.6L633.74,757.59z M628.74,762.51l7.59,6.83l-0.83,0.93l-7.59-6.84L628.74,762.51z
		 M624.22,767.89l8.25,6l-0.72,1l-8.27-6L624.22,767.89z M620.35,773.73l8.84,5.11l-0.62,1.07l-8.84-5.09L620.35,773.73z
		 M617.1,779.95l9.32,4.15l-0.5,1.13l-9.32-4.15L617.1,779.95z M614.54,786.47l9.69,3.15l-0.38,1.19l-9.69-3.16L614.54,786.47z
		 M622.64,795.34l-0.26,1.21l-9.99-2.12l0.26-1.21L622.64,795.34z"/>
	<g>
		<rect x="567.35" y="340.85" class="st0" width="2.48" height="155.5"/>
	</g>
	<g>
		
			<rect x="536.13" y="444.37" transform="matrix(0.669 -0.7432 0.7432 0.669 -138.3019 580.6378)" class="st0" width="93.34" height="2.48"/>
	</g>
	<g>
		<rect x="677.48" y="760.59" class="st2" width="1.24" height="61.12"/>
	</g>
</g>
<g>
	<path class="st3" d="M613.01,2389.54l-43.18,47.97v-117.15h-2.48v119.91l-16.78,18.64l1.84,1.66l14.94-16.6v31.89h2.48v-34.64
		l45.02-50.02L613.01,2389.54z"/>
	<path class="st3" d="M762.26,2327.88v-11.16c0-37.93-30.86-68.79-68.78-68.79h-11.86l-0.56,0.97l-28.43,49.23l-1.82-1.05
		l28.37-49.15H570.9l-1.24,44.5h-2.09l-1.24-44.5H457.98l36.58,63.32l-1.83,1.05l-0.12-0.22l-37.06-64.15h-11.7
		c-37.93,0-68.78,30.86-68.78,68.79v11.21l64.72,37.36l-1.05,1.83l-0.22-0.12l-63.45-36.64v108.51l44.52,1.24v2.1l-44.52,1.24V2552
		l63.62-36.73l1.05,1.82l-0.21,0.13l-64.46,37.21v62.43c0,25.92,13.29,49.4,39.51,69.78l0.08,0.06l6.64,6.04l70.56-122.26l1.83,1.06
		l-0.13,0.22L422.9,2694.2l143.45,130.52l1.21-234.48h2.11v0.24l1.23,238.37l31.4,28.57c0.03,0.03,0.05,0.04,0.08,0.07
		c10.65,7.83,22.74,13.04,47.18,13.04h71.79c22.56,0,40.91-18.35,40.91-40.91v-83.83c0-22.56-18.35-40.92-40.91-40.92h-80.79
		c-13.4,0-23.98-6.88-26.96-17.53c-2.35-8.4,0.08-20.38,13.97-28.81l48.51-29.51l-33.49-58.01l1.83-1.06l0.13,0.22l33.34,57.75
		l44.41-27.02c18.47-11.76,31.63-28.86,37.04-48.17l-61.92-35.76l1.06-1.82l61.43,35.46c1.56-6.16,2.35-12.57,2.35-19.07v-88.09
		l-44.52-1.24v-2.1l44.52-1.24v-108.56l-63.77,36.82l-1.06-1.82l0.22-0.12L762.26,2327.88z M615.98,2786.07
		c1.77,0.1,3.54,0.21,5.31,0.32l0.24,0.01v1.71l-10.71,0.67v-3.03l0.26,0.02C612.72,2785.87,614.35,2785.97,615.98,2786.07z
		 M611.09,2781.1l0.19-1.73l10.65,1.12l-0.2,1.72L611.09,2781.1z M611.09,2793.43l10.64-1.13l0.19,1.74l-10.64,1.11L611.09,2793.43z
		 M612.09,2800.39l0.25-0.05l10.24-2.18l0.36,1.71l-0.25,0.05l-10.23,2.17L612.09,2800.39z M613.84,2807.2l10.16-3.3l0.54,1.65
		l-10.16,3.31L613.84,2807.2z M616.28,2813.8l9.78-4.35l0.69,1.59l-9.78,4.36L616.28,2813.8z M619.39,2820.12l9.27-5.35l0.87,1.51
		l-9.27,5.34L619.39,2820.12z M623.14,2826.07l8.67-6.29l1.01,1.41l-8.66,6.29L623.14,2826.07z M627.56,2831.62l7.95-7.17l1.17,1.3
		l-7.96,7.16L627.56,2831.62z M632.47,2836.67l7.16-7.97l1.3,1.16l-7.18,7.97L632.47,2836.67z M637.87,2841.17l0.15-0.21l6.14-8.47
		l1.41,1.03l-6.29,8.66L637.87,2841.17z M645.23,2845.94l-1.5-0.87l5.34-9.27l1.52,0.87L645.23,2845.94z M651.55,2849.05l-1.6-0.71
		l4.36-9.78l1.58,0.71L651.55,2849.05z M710.95,2845.94l-5.36-9.27l1.51-0.87l5.36,9.27L710.95,2845.94z M716.89,2842.18l-6.29-8.66
		l1.41-1.03l6.3,8.68L716.89,2842.18z M722.42,2837.83l-7.16-7.97l1.29-1.16l7.17,7.97L722.42,2837.83z M727.47,2832.91l-7.97-7.16
		l1.16-1.3l7.97,7.17L727.47,2832.91z M731.97,2827.5l-8.68-6.29l1.03-1.41l8.67,6.3L731.97,2827.5z M735.87,2821.65l-9.27-5.35
		l0.87-1.51l9.27,5.36L735.87,2821.65z M739.14,2815.43l-9.76-4.36l0.69-1.58l9.78,4.34L739.14,2815.43z M741.75,2808.89l-10.16-3.3
		l0.52-1.67l0.24,0.08l9.94,3.24L741.75,2808.89z M743.67,2802.12l-10.48-2.23l0.36-1.7l10.47,2.22L743.67,2802.12z M744.85,2795.18
		l-10.65-1.12l0.19-1.72l10.65,1.11L744.85,2795.18z M745.31,2788.8l-10.71-0.66l-0.01-0.24v-1.49h0.25
		c1.56-0.09,3.12-0.19,4.68-0.28c1.45-0.09,2.89-0.17,4.34-0.26l1.45-0.09V2788.8z M745.04,2781.12l-10.65,1.12l-0.19-1.72
		l10.65-1.12L745.04,2781.12z M744.02,2774.16l-10.47,2.23l-0.36-1.71l10.48-2.22L744.02,2774.16z M742.29,2767.34l-10.18,3.31
		l-0.53-1.65l0.24-0.08l9.93-3.23L742.29,2767.34z M739.85,2760.75l-9.78,4.34l-0.69-1.58l9.76-4.36L739.85,2760.75z
		 M736.74,2754.43l-9.27,5.36l-0.87-1.52l9.27-5.34L736.74,2754.43z M732.99,2748.48l-8.67,6.29l-1.03-1.41l8.68-6.29
		L732.99,2748.48z M728.63,2742.95l-7.97,7.18l-1.16-1.3l7.97-7.16L728.63,2742.95z M722.42,2736.74l1.3,1.17l-7.17,7.97l-1.29-1.17
		L722.42,2736.74z M718.3,2733.42l-6.29,8.66l-1.41-1.02l6.3-8.66L718.3,2733.42z M712.46,2729.51l-5.36,9.27l-1.51-0.87l5.36-9.27
		L712.46,2729.51z M704.64,2725.53l1.59,0.71l-4.36,9.78l-1.59-0.72L704.64,2725.53z M701.87,2838.56l4.36,9.78l-1.59,0.71
		l-4.36-9.78L701.87,2838.56z M698.04,2723.09l1.65,0.54l-3.3,10.16l-1.66-0.52L698.04,2723.09z M696.32,2840.75l3.32,10.18
		l-1.65,0.54l-3.32-10.19L696.32,2840.75z M691.21,2721.36l1.71,0.36l-0.06,0.25l-2.17,10.22l-1.7-0.37L691.21,2721.36z
		 M690.63,2842.36l2.22,10.47l-1.69,0.37l-2.22-10.47L690.63,2842.36z M683.16,2730.75l1.09-10.4l1.73,0.18l-0.03,0.25l-1.09,10.39
		l-1.72-0.17L683.16,2730.75z M684.81,2843.38l1.12,10.65l-1.74,0.17l-1.12-10.65L684.81,2843.38z M679.6,2720.07l-0.02,0.26
		c-0.11,1.77-0.21,3.54-0.32,5.31c-0.1,1.64-0.19,3.27-0.3,4.9l-0.01,0.24h-1.72l-0.02-0.24l-0.56-8.96c0-0.03,0-0.08,0.02-0.12
		v-0.03l-0.09-1.36H679.6z M677.18,2843.77h1.71l0.01,0.24c0.11,1.7,0.21,3.39,0.31,5.09c0.1,1.71,0.21,3.41,0.31,5.12l0.02,0.27
		h-3.02L677.18,2843.77z M671.93,2720.35l1.12,10.63l-1.74,0.2l-1.11-10.65L671.93,2720.35z M670.17,2853.78l1.1-10.4l1.72,0.17
		l-1.12,10.65l-1.72-0.17L670.17,2853.78z M664.96,2721.36l2.23,10.46l-1.71,0.37l-2.22-10.47L664.96,2721.36z M665.43,2842.36
		l1.71,0.37l-2.23,10.47l-1.7-0.37L665.43,2842.36z M658.14,2723.09l3.31,10.18l-1.65,0.52l-0.08-0.23l-3.24-9.93L658.14,2723.09z
		 M659.74,2840.75l1.65,0.53l-3.3,10.19l-1.65-0.54L659.74,2840.75z M651.55,2725.53l4.34,9.77l-1.58,0.72l-4.36-9.78
		L651.55,2725.53z M645.23,2728.64l5.36,9.27l-1.52,0.87l-5.34-9.27L645.23,2728.64z M639.28,2732.4l6.29,8.66l-1.4,1.02l-6.3-8.66
		L639.28,2732.4z M633.75,2736.74l7.18,7.97l-1.3,1.17l-7.16-7.97L633.75,2736.74z M628.72,2741.67l7.96,7.16l-1.17,1.3l-7.95-7.18
		L628.72,2741.67z M624.16,2747.05l8.66,6.29l-1.01,1.41l-8.67-6.29L624.16,2747.05z M620.26,2752.89l9.27,5.36l-0.87,1.5
		l-9.27-5.35L620.26,2752.89z M616.97,2759.13l9.78,4.35l-0.7,1.59l-9.77-4.36L616.97,2759.13z M614.38,2765.66l10.16,3.3
		l-0.53,1.67l-10.17-3.32L614.38,2765.66z M622.94,2774.66l-0.37,1.7l-10.47-2.22l0.36-1.7L622.94,2774.66z M569.83,2441.22v34.64
		h-2.48v-31.89l-14.94,16.6l-1.84-1.66l16.78-18.64v-119.91h2.48v117.15l43.18-47.97l1.84,1.66L569.83,2441.22z"/>
	<g>
		<rect x="567.35" y="2320.36" class="st1" width="2.48" height="155.5"/>
	</g>
	<g>
		<polygon class="st1" points="614.85,2391.2 569.83,2441.22 567.35,2443.97 552.41,2460.57 550.57,2458.91 567.35,2440.27 
			569.83,2437.51 613.01,2389.54 		"/>
	</g>
</g>
<g>
	<rect x="207.04" y="3491.06" class="st0" width="2.48" height="155.5"/>
</g>
<g>
	<rect x="1151.68" y="3575.1" class="st0" width="1.24" height="61.12"/>
</g>
<g>
	<path class="st3" d="M1919.58,2327.88v-11.16c0-37.93-30.86-68.79-68.78-68.79h-11.86l-0.56,0.97l-28.43,49.23l-1.82-1.05
		l28.37-49.15h-108.28l-1.24,44.5h-2.09l-1.24-44.5H1615.3l36.58,63.32l-1.83,1.05l-0.12-0.22l-37.06-64.15h-11.7
		c-37.93,0-68.78,30.86-68.78,68.79v11.21l64.72,37.36l-1.05,1.83l-0.22-0.12l-63.45-36.64v108.51l44.52,1.24v2.1l-44.52,1.24V2552
		l63.62-36.73l1.05,1.82l-0.21,0.13l-64.46,37.21v62.43c0,25.92,13.29,49.4,39.51,69.78l0.08,0.06l6.64,6.04l70.56-122.26l1.83,1.06
		l-0.13,0.22l-70.66,122.44l143.45,130.52l1.21-234.48h2.11v0.24l1.23,238.37l31.4,28.57c0.03,0.03,0.05,0.04,0.08,0.07
		c10.65,7.83,22.74,13.04,47.18,13.04h71.79c22.56,0,40.91-18.35,40.91-40.91v-83.83c0-22.56-18.35-40.92-40.91-40.92h-80.79
		c-13.4,0-23.98-6.88-26.96-17.53c-2.35-8.4,0.08-20.38,13.97-28.81l48.51-29.51l-33.49-58.01l1.83-1.06l0.13,0.22l33.34,57.75
		l44.41-27.02c18.47-11.76,31.63-28.86,37.04-48.17l-61.92-35.76l1.06-1.82l61.43,35.46c1.56-6.16,2.35-12.57,2.35-19.07v-88.09
		l-44.52-1.24v-2.1l44.52-1.24v-108.56l-63.77,36.82l-1.06-1.82l0.22-0.12L1919.58,2327.88z M1768.6,2779.37l10.65,1.12l-0.2,1.72
		l-10.64-1.11L1768.6,2779.37z M1768.14,2785.75l0.26,0.02c1.64,0.1,3.27,0.2,4.9,0.3c1.77,0.1,3.54,0.21,5.31,0.32l0.24,0.01v1.71
		l-10.71,0.67V2785.75z M1768.41,2793.43l10.64-1.13l0.19,1.74l-10.64,1.11L1768.41,2793.43z M1769.41,2800.39l0.25-0.05l10.24-2.18
		l0.36,1.71l-0.25,0.05l-10.23,2.17L1769.41,2800.39z M1771.16,2807.2l10.16-3.3l0.54,1.65l-10.16,3.31L1771.16,2807.2z
		 M1773.6,2813.8l9.78-4.35l0.69,1.59l-9.78,4.36L1773.6,2813.8z M1776.71,2820.12l9.27-5.35l0.87,1.51l-9.27,5.34L1776.71,2820.12z
		 M1780.46,2826.07l8.67-6.29l1.01,1.41l-8.66,6.29L1780.46,2826.07z M1784.88,2831.62l7.95-7.17l1.17,1.3l-7.96,7.16
		L1784.88,2831.62z M1789.79,2836.67l7.16-7.97l1.3,1.16l-7.18,7.97L1789.79,2836.67z M1795.19,2841.17l0.15-0.21l6.14-8.47
		l1.41,1.03l-6.29,8.66L1795.19,2841.17z M1802.55,2845.94l-1.5-0.87l5.34-9.27l1.52,0.87L1802.55,2845.94z M1808.87,2849.05
		l-1.6-0.71l4.36-9.78l1.58,0.71L1808.87,2849.05z M1868.27,2845.94l-5.36-9.27l1.51-0.87l5.36,9.27L1868.27,2845.94z
		 M1874.21,2842.18l-6.29-8.66l1.41-1.03l6.3,8.68L1874.21,2842.18z M1879.74,2837.83l-7.16-7.97l1.29-1.16l7.17,7.97
		L1879.74,2837.83z M1884.79,2832.91l-7.97-7.16l1.16-1.3l7.97,7.17L1884.79,2832.91z M1889.29,2827.5l-8.68-6.29l1.03-1.41
		l8.67,6.3L1889.29,2827.5z M1893.19,2821.65l-9.27-5.35l0.87-1.51l9.27,5.36L1893.19,2821.65z M1896.46,2815.43l-9.76-4.36
		l0.69-1.58l9.78,4.34L1896.46,2815.43z M1899.07,2808.89l-10.16-3.3l0.52-1.67l0.24,0.08l9.94,3.24L1899.07,2808.89z
		 M1900.99,2802.12l-10.48-2.23l0.36-1.7l10.47,2.22L1900.99,2802.12z M1902.17,2795.18l-10.65-1.12l0.19-1.72l10.65,1.11
		L1902.17,2795.18z M1902.63,2788.8l-10.71-0.66l-0.01-0.24v-1.49h0.25c1.56-0.09,3.12-0.19,4.68-0.28
		c1.45-0.09,2.89-0.17,4.34-0.26l1.45-0.09V2788.8z M1902.36,2781.12l-10.65,1.12l-0.19-1.72l10.65-1.12L1902.36,2781.12z
		 M1901.34,2774.16l-10.47,2.23l-0.36-1.71l10.48-2.22L1901.34,2774.16z M1899.61,2767.34l-10.18,3.31l-0.53-1.65l0.24-0.08
		l9.93-3.23L1899.61,2767.34z M1897.17,2760.75l-9.78,4.34l-0.69-1.58l9.76-4.36L1897.17,2760.75z M1894.06,2754.43l-9.27,5.36
		l-0.87-1.52l9.27-5.34L1894.06,2754.43z M1890.31,2748.48l-8.67,6.29l-1.03-1.41l8.68-6.29L1890.31,2748.48z M1885.95,2742.95
		l-7.97,7.18l-1.16-1.3l7.97-7.16L1885.95,2742.95z M1879.74,2736.74l1.3,1.17l-7.17,7.97l-1.29-1.17L1879.74,2736.74z
		 M1875.62,2733.42l-6.29,8.66l-1.41-1.02l6.3-8.66L1875.62,2733.42z M1869.78,2729.51l-5.36,9.27l-1.51-0.87l5.36-9.27
		L1869.78,2729.51z M1861.96,2725.53l1.59,0.71l-4.36,9.78l-1.59-0.72L1861.96,2725.53z M1859.19,2838.56l4.36,9.78l-1.59,0.71
		l-4.36-9.78L1859.19,2838.56z M1855.36,2723.09l1.65,0.54l-3.3,10.16l-1.66-0.52L1855.36,2723.09z M1853.64,2840.75l3.32,10.18
		l-1.65,0.54l-3.32-10.19L1853.64,2840.75z M1848.53,2721.36l1.71,0.36l-0.06,0.25l-2.17,10.22l-1.7-0.37L1848.53,2721.36z
		 M1847.95,2842.36l2.22,10.47l-1.69,0.37l-2.22-10.47L1847.95,2842.36z M1840.48,2730.75l1.09-10.4l1.73,0.18l-0.03,0.25
		l-1.09,10.39l-1.72-0.17L1840.48,2730.75z M1842.13,2843.38l1.12,10.65l-1.74,0.17l-1.12-10.65L1842.13,2843.38z M1836.92,2720.07
		l-0.02,0.26c-0.11,1.77-0.21,3.54-0.32,5.31c-0.1,1.64-0.19,3.27-0.3,4.9l-0.01,0.24h-1.72l-0.02-0.24l-0.56-8.96
		c0-0.03,0-0.08,0.02-0.12v-0.03l-0.09-1.36L1836.92,2720.07L1836.92,2720.07z M1834.5,2843.77h1.71l0.01,0.24
		c0.11,1.7,0.21,3.39,0.31,5.09c0.1,1.71,0.21,3.41,0.31,5.12l0.02,0.27h-3.02L1834.5,2843.77z M1829.25,2720.35l1.12,10.63
		l-1.74,0.2l-1.11-10.65L1829.25,2720.35z M1827.49,2853.78l1.1-10.4l1.72,0.17l-1.12,10.65l-1.72-0.17L1827.49,2853.78z
		 M1822.28,2721.36l2.23,10.46l-1.71,0.37l-2.22-10.47L1822.28,2721.36z M1822.75,2842.36l1.71,0.37l-2.23,10.47l-1.7-0.37
		L1822.75,2842.36z M1815.46,2723.09l3.31,10.18l-1.65,0.52l-0.08-0.23l-3.24-9.93L1815.46,2723.09z M1817.06,2840.75l1.65,0.53
		l-3.3,10.19l-1.65-0.54L1817.06,2840.75z M1808.87,2725.53l4.34,9.77l-1.58,0.72l-4.36-9.78L1808.87,2725.53z M1802.55,2728.64
		l5.36,9.27l-1.52,0.87l-5.34-9.27L1802.55,2728.64z M1796.6,2732.4l6.29,8.66l-1.4,1.02l-6.3-8.66L1796.6,2732.4z M1791.07,2736.74
		l7.18,7.97l-1.3,1.17l-7.16-7.97L1791.07,2736.74z M1786.04,2741.67l7.96,7.16l-1.17,1.3l-7.95-7.18L1786.04,2741.67z
		 M1781.48,2747.05l8.66,6.29l-1.01,1.41l-8.67-6.29L1781.48,2747.05z M1777.58,2752.89l9.27,5.36l-0.87,1.5l-9.27-5.35
		L1777.58,2752.89z M1774.29,2759.13l9.78,4.35l-0.7,1.59l-9.77-4.36L1774.29,2759.13z M1771.7,2765.66l10.16,3.3l-0.53,1.67
		l-10.17-3.32L1771.7,2765.66z M1780.26,2774.66l-0.37,1.7l-10.47-2.22l0.36-1.7L1780.26,2774.66z"/>
</g>
<path class="st1" d="M1834.8,760.59v61.12h1.24v-61.12H1834.8z"/>
<path class="st1" d="M1919.83,337.21c0-38.13-30.91-69.04-69.04-69.04h-12l-0.63,1.09l-28.31,49.02l-0.69-0.4l-0.69-0.41l28.3-49.02
	l0.17-0.29h-108.96l-1.24,44.5h-1.61l-1.24-44.5h-109.02l27.3,47.28l9.36,16.19l-0.69,0.4l-0.69,0.41l-9.36-16.2l-21.86-37.84
	l-5.58-9.66l-0.33-0.58h-11.84c-38.12,0-69.04,30.91-69.04,69.04v11.35l64.64,37.31l-0.81,1.4l-63.83-36.85v109.18l44.52,1.24v1.61
	l-44.52,1.24v109.23l63.78-36.82l0.41,0.69l0.4,0.69l-64.59,37.28v62.58c0,28.66,16.46,51.98,39.61,69.98
	c0.01,0.01,0.04,0.04,0.06,0.05l6.87,6.25l70.6-122.31l0.69,0.41l0.69,0.4l-70.76,122.62l144.01,131.03l1.21-234.8h1.61l1.23,238.48
	l31.48,28.64c0.04,0.04,0.07,0.06,0.11,0.09c15.43,11.35,30.65,13.09,47.32,13.09h71.79c22.73,0,41.16-18.43,41.16-41.16v-83.84
	c0-22.73-18.43-41.16-41.16-41.16h-80.79c-28.89,0-37.99-30.63-12.87-45.88l48.72-29.63l-33.49-58.01l0.69-0.4l0.71-0.41
	l33.46,57.97l44.63-27.14c18.52-11.79,31.72-28.74,37.21-48.51l-61.87-35.73l0.4-0.69l0.41-0.69l61.5,35.51
	c1.61-6.25,2.44-12.75,2.44-19.46V463.7l-44.52-1.24v-1.61l44.52-1.24V350.38l-63.93,36.91l-0.4-0.69l-0.41-0.69l64.74-37.38v-11.32
	H1919.83z M1768.82,800.14l10.15,1.07l-0.14,1.23l-10.15-1.07L1768.82,800.14z M1768.39,806.51c3.41,0.21,6.8,0.41,10.21,0.62v1.24
	c-3.41,0.21-6.8,0.42-10.21,0.63V806.51z M1768.69,814.14l10.15-1.08l0.13,1.24l-10.15,1.07L1768.69,814.14z M1769.71,821.07
	l9.99-2.12l0.26,1.22l-9.99,2.12L1769.71,821.07z M1771.47,827.86l9.69-3.15l0.39,1.17l-9.69,3.16L1771.47,827.86z M1773.93,834.42
	l9.32-4.15l0.5,1.14l-9.32,4.15L1773.93,834.42z M1777.05,840.71l8.84-5.11l0.62,1.08l-8.84,5.09L1777.05,840.71z M1780.81,846.62
	l8.27-6l0.72,1l-8.25,6L1780.81,846.62z M1785.23,852.13l7.59-6.84l0.83,0.93l-7.59,6.83L1785.23,852.13z M1790.14,857.14l6.83-7.6
	l0.93,0.83l-6.84,7.6L1790.14,857.14z M1795.54,861.6l6-8.27l1,0.73l-6,8.25L1795.54,861.6z M1802.46,866.09l-1.07-0.62l5.09-8.84
	l1.08,0.62L1802.46,866.09z M1874.27,862.32l-6-8.25l1-0.73l6,8.27L1874.27,862.32z M1879.76,857.97l-6.83-7.6l0.92-0.83l6.84,7.6
	L1879.76,857.97z M1884.77,853.05l-7.6-6.83l0.83-0.93l7.6,6.84L1884.77,853.05z M1889.23,847.65l-8.27-6l0.73-1l8.27,6
	L1889.23,847.65z M1893.1,841.8l-8.84-5.09l0.62-1.08l8.84,5.11L1893.1,841.8z M1896.34,835.59l-9.31-4.15l0.5-1.13l9.32,4.14
	L1896.34,835.59z M1898.91,829.07l-9.69-3.15l0.37-1.19l9.7,3.16L1898.91,829.07z M1900.8,822.31l-9.99-2.12l0.26-1.21l9.98,2.12
	L1900.8,822.31z M1901.95,815.4l-10.15-1.07l0.14-1.23l10.15,1.07L1901.95,815.4z M1902.38,809.03l-10.21-0.63h-0.01v-1.24h0.01
	c3.01-0.19,9.81-0.6,10.21-0.62V809.03z M1902.09,801.39l-10.15,1.07l-0.14-1.23l10.15-1.07L1902.09,801.39z M1901.04,794.46
	l-9.98,2.12l-0.26-1.21l9.99-2.12L1901.04,794.46z M1899.3,787.67l-9.7,3.16l-0.37-1.18l9.69-3.16L1899.3,787.67z M1896.84,781.12
	l-9.32,4.14l-0.5-1.13l9.31-4.15L1896.84,781.12z M1893.72,774.83l-8.84,5.11l-0.62-1.08l8.84-5.09L1893.72,774.83z M1889.96,768.92
	l-8.27,6l-0.73-1l8.27-6L1889.96,768.92z M1885.6,763.43l-7.6,6.84l-0.83-0.93l7.6-6.83L1885.6,763.43z M1879.76,757.59l0.93,0.83
	l-6.84,7.6l-0.92-0.83L1879.76,757.59z M1875.28,753.97l-6,8.25l-1-0.73l6-8.25L1875.28,753.97z M1868.36,749.47l1.08,0.62
	l-5.11,8.84l-1.08-0.62L1868.36,749.47z M1864.33,856.63l5.11,8.84l-1.08,0.62l-5.11-8.84L1864.33,856.63z M1862.09,746.35
	l1.13,0.51l-4.15,9.32l-1.13-0.51L1862.09,746.35z M1859.07,859.39l4.15,9.32l-1.13,0.51l-4.15-9.32L1859.07,859.39z M1855.52,743.9
	l1.18,0.38l-3.15,9.69l-1.18-0.37L1855.52,743.9z M1853.49,861.55l3.16,9.7l-1.18,0.38l-3.16-9.7L1853.49,861.55z M1848.73,742.15
	l1.21,0.26l-2.12,9.98l-1.21-0.26L1848.73,742.15z M1847.76,863.15l2.12,9.98l-1.2,0.26l-2.12-9.98L1847.76,863.15z M1841.8,741.12
	l1.23,0.12l-1.07,10.15l-1.23-0.12L1841.8,741.12z M1841.91,864.15l1.07,10.15l-1.24,0.12l-1.07-10.15L1841.91,864.15z
	 M1836.66,740.81c-0.21,3.41-0.41,6.8-0.62,10.21h-1.25l-0.62-10.21H1836.66L1836.66,740.81z M1836.04,760.59v61.12h-1.24v-61.12
	H1836.04z M1834.74,864.52h1.24c0.21,3.41,0.41,6.8,0.62,10.21h-2.49C1834.31,871.32,1834.52,867.93,1834.74,864.52z
	 M1829.03,741.12l1.07,10.14l-1.24,0.14l-1.07-10.15L1829.03,741.12z M1828.81,864.15l1.23,0.12l-1.07,10.15l-1.23-0.12
	L1828.81,864.15z M1822.09,742.15l2.12,9.98l-1.21,0.26l-2.12-9.98L1822.09,742.15z M1822.95,863.15l1.21,0.26l-2.12,9.98
	l-1.21-0.26L1822.95,863.15z M1815.3,743.9l3.16,9.7l-1.18,0.37l-3.16-9.69L1815.3,743.9z M1817.22,861.55l1.18,0.38l-3.15,9.7
	l-1.18-0.38L1817.22,861.55z M1808.74,746.35l4.14,9.32l-1.13,0.51l-4.15-9.32L1808.74,746.35z M1811.76,859.39l1.13,0.51
	l-4.14,9.32l-1.14-0.51L1811.76,859.39z M1802.46,749.47l5.11,8.84l-1.08,0.62l-5.09-8.84L1802.46,749.47z M1796.55,753.24l6,8.25
	l-1,0.73l-6-8.25L1796.55,753.24z M1791.06,757.59l6.84,7.6l-0.93,0.83l-6.83-7.6L1791.06,757.59z M1786.06,762.51l7.59,6.83
	l-0.83,0.93l-7.59-6.84L1786.06,762.51z M1781.54,767.89l8.25,6l-0.72,1l-8.27-6L1781.54,767.89z M1777.67,773.73l8.84,5.11
	l-0.62,1.07l-8.84-5.09L1777.67,773.73z M1774.42,779.95l9.32,4.15l-0.5,1.13l-9.32-4.15L1774.42,779.95z M1771.86,786.47l9.69,3.15
	l-0.38,1.19l-9.69-3.16L1771.86,786.47z M1779.96,795.34l-0.26,1.21l-9.99-2.12l0.26-1.21L1779.96,795.34z"/>
<g>
	
		<rect x="686.14" y="3549.18" transform="matrix(1 -3.451637e-03 3.451637e-03 1 -12.4075 2.394)" class="st0" width="2.48" height="93.34"/>
</g>
<g>
	<rect x="677.47" y="2740.09" class="st1" width="1.24" height="61.12"/>
</g>
<g>
	<rect x="207.04" y="4089.7" class="st1" width="2.48" height="155.5"/>
</g>
<g>
	<rect x="1151.68" y="4173.75" class="st1" width="1.24" height="61.12"/>
</g>
<g>
	
		<rect x="686.14" y="4147.83" transform="matrix(1 -3.451637e-03 3.451637e-03 1 -14.4738 2.3976)" class="st1" width="2.48" height="93.34"/>
</g>
</svg>
