<?xml version="1.0" encoding="UTF-8"?>
<svg id="Layer_1" data-name="Layer 1" xmlns="http://www.w3.org/2000/svg" version="1.1" viewBox="0 0 115.1 114.28">
  <defs>
    <style>
      .cls-1 {
        fill: #ff6958;
        stroke-width: 0px;
      }
    </style>
  </defs>
  <path class="cls-1" d="M107.24,0H38.09S2.49,106.83,2.49,106.83c-1.23,3.67,1.5,7.45,5.37,7.45h69.15S112.62,7.46,112.62,7.46C113.84,3.79,111.11,0,107.24,0ZM77.01,96.27c-1.92.37-3.84.74-5.76,1.11-9.83-28.87-19.65-57.73-29.48-86.6l4.43-2.9,30.81,29.94v58.45Z"/>
  <path class="cls-1" d="M90.57,98.63l-.43,1.28c.07-.21.36-1.07.43-1.28Z"/>
  <path class="cls-1" d="M87.62,82.9l-.43,1.28c.07-.21.36-1.07.43-1.28Z"/>
  <path class="cls-1" d="M87.62,82.9l-.43,1.28c.07-.21.36-1.07.43-1.28Z"/>
  <path class="cls-1" d="M87.62,82.9l-.43,1.28c.07-.21.36-1.07.43-1.28Z"/>
</svg>