<?xml version="1.0" encoding="UTF-8"?>
<svg id="Layer_1" data-name="Layer 1" xmlns="http://www.w3.org/2000/svg" version="1.1" viewBox="0 0 115.11 114.28">
  <defs>
    <style>
      .cls-1 {
        fill: #ff6958;
        stroke-width: 0px;
      }
    </style>
  </defs>
  <path class="cls-1" d="M106.83,0H38.09l-19.04,57.13h22.67c7.76,0,13.23-7.63,10.73-14.98l-10.69-31.38,4.42-2.9h0l30.82,29.94-19.46,19.32,12.93,37.99-.03.02-4.32,2.82-28.04-21.5-28.34,28.14c-3.59,3.56-1.06,9.68,3.99,9.68h66.27l18.38-55.05c1.22-3.68-1.51-7.49-5.39-7.49-3.17.01-9.5.03-9.5.03l28.17-42.36s.63-1.01.82-1.58h0C113.77,3.98,110.9,0,106.83,0Z"/>
</svg>