<?xml version="1.0" encoding="UTF-8"?>
<svg id="Layer_1" data-name="Layer 1" xmlns="http://www.w3.org/2000/svg" version="1.1" viewBox="0 0 115.1 114.28">
  <defs>
    <style>
      .cls-1 {
        fill: #ff6958;
        stroke-width: 0px;
      }
    </style>
  </defs>
  <path class="cls-1" d="M87.35,82.9l-.43,1.28c.07-.21.36-1.07.43-1.28Z"/>
  <path class="cls-1" d="M87.28,82.84l-.43,1.28c.07-.21.36-1.07.43-1.28Z"/>
  <path class="cls-1" d="M87.35,82.9l-.43,1.28c.07-.21.36-1.07.43-1.28Z"/>
  <path class="cls-1" d="M107.15,23.9c-8.53,25.61-21.95,65.88-30.11,90.38H13.73c-5.05-.01-7.57-6.12-3.99-9.68l42.38-42.07c-8.34-.01-16.67-.02-25.01-.02-4.84,0-8.26-4.75-6.73-9.34L38.09,0l41.08-.05,2.58,7.55-30.68,30.59s4.32,12.7,6.48,19.05l39.68-39.39c4.48-4.45,11.91.15,9.92,6.15Z"/>
  <path class="cls-1" d="M107.16,23.85s-.02.06-.03.1l-19.66,59.03,19.69-59.13Z"/>
  <path class="cls-1" d="M87.28,82.84l-.43,1.28c.07-.21.36-1.07.43-1.28Z"/>
</svg>