<?xml version="1.0" encoding="UTF-8"?>
<svg id="Layer_1" data-name="Layer 1" xmlns="http://www.w3.org/2000/svg" version="1.1" viewBox="0 0 115.1 114.28">
  <defs>
    <style>
      .cls-1 {
        fill: #ff6958;
        stroke-width: 0px;
      }
    </style>
  </defs>
  <path class="cls-1" d="M46.19,7.89l-4.43,2.9,13.95,40.97h32.33c4.83.01,8.23,4.74,6.71,9.32-5.92,17.73-11.83,35.47-17.74,53.21H13.74c-5.06-.01-7.58-6.12-3.99-9.69,14.12-14.02,28.24-28.03,42.36-42.05h-25.02c-4.84,0-8.26-4.75-6.73-9.34C26.06,36.1,38.09.02,38.09.02c0,0,43.24-.01,63.27-.01,5.06,0,7.58,6.12,3.99,9.68-9.38,9.32-18.77,18.63-28.16,27.95-.1.1-.27.11-.37.01-10.21-9.93-20.42-19.85-30.63-29.76Z"/>
</svg>