<?xml version="1.0" encoding="UTF-8"?>
<svg id="Layer_1" data-name="Layer 1" xmlns="http://www.w3.org/2000/svg" version="1.1" viewBox="0 0 115.11 114.28">
  <defs>
    <style>
      .cls-1 {
        fill: #ff6958;
        stroke-width: 0px;
      }
    </style>
  </defs>
  <path class="cls-1" d="M90.57,98.63l-.43,1.28c.07-.21.36-1.07.43-1.28Z"/>
  <path class="cls-1" d="M87.62,82.9l-.43,1.28c.07-.21.36-1.07.43-1.28Z"/>
  <path class="cls-1" d="M87.62,82.9l-.43,1.28c.07-.21.36-1.07.43-1.28Z"/>
  <path class="cls-1" d="M87.62,82.9l-.43,1.28c.07-.21.36-1.07.43-1.28Z"/>
  <path class="cls-1" d="M107.25,0H38.09c-3.64,10.91-12.89,38.64-17.76,53.24-1.53,4.58,1.88,9.31,6.72,9.31h32.34s9.38,27.52,11.1,32.54l-.1.06-4.3,2.81-27.99-21.5-28.32,28.12c-2.2,2.18-2.11,5.31-.55,7.42.98,1.35,2.57,2.28,4.54,2.28h63.25S104.17,32.79,112.62,7.43C113.84,3.77,111.11,0,107.25,0ZM57.55,57.15c-2.16-6.35-4.33-12.69-6.49-19.04,15.3-9.1,30.6-18.2,45.89-27.31,1.12,1.3,2.24,2.6,3.35,3.9-14.25,14.15-28.5,28.3-42.75,42.45Z"/>
</svg>