<?xml version="1.0" encoding="UTF-8"?>
<svg id="Layer_1" xmlns="http://www.w3.org/2000/svg" version="1.1" viewBox="0 0 83.6 56.7">
  <!-- Generator: Adobe Illustrator 29.0.0, SVG Export Plug-In . SVG Version: 2.1.0 Build 186)  -->
  <defs>
    <style>
      .st0 {
        fill: #ff6958;
      }
    </style>
  </defs>
  <g>
    <path class="st0" d="M43.6,35v3.5h-2.5v-3.5h-7.9v-1.9l7.4-12.2h2.9v12h2.4v2.1h-2.4ZM41,32.9v-8.7l-5.3,8.7h5.3Z"/>
    <path class="st0" d="M61.4,30.4h-8.2v8.1h-2.5v-17.6h2.5v7.4h8.2v-7.4h2.5v17.6h-2.5v-8.1Z"/>
    <path class="st0" d="M20.3,38.4v-1.9l6-6.6c.6-.7,1.1-1.2,1.5-1.8.4-.5.5-1,.7-1.3,0-.4.2-.9.2-1.3,0-.9-.2-1.6-.6-2s-1.1-.6-2-.6-1.7.3-2.2.8-.8,1.3-.9,2.5h-2.4c0-1.7.6-3,1.6-4s2.3-1.4,4-1.4,3.1.4,4,1.3,1.2,2,1.2,3.5,0,1.6-.4,2.2-.6,1.2-1.1,1.9-1.1,1.3-1.9,2l-4.1,4.8h7.7v2.1h-11.3Z"/>
  </g>
  <path d="M67.8,15.4"/>
  <path d="M67.8,15.4"/>
</svg>