<?xml version="1.0" encoding="UTF-8"?>
<svg id="Layer_1" xmlns="http://www.w3.org/2000/svg" version="1.1" viewBox="0 0 83.6 56.7">
  <!-- Generator: Adobe Illustrator 29.0.0, SVG Export Plug-In . SVG Version: 2.1.0 Build 186)  -->
  <defs>
    <style>
      .st0 {
        fill: #ff6958;
      }
    </style>
  </defs>
  <path class="st0" d="M43.5,34.5v4h-2.8v-4h-8.9v-2.2l8.4-13.8h3.3v13.6h2.7v2.4h-2.7ZM40.6,32.1v-9.9l-6,9.9h6Z"/>
  <path class="st0" d="M63.7,29.3h-9.3v9.2h-2.8v-20h2.8v8.4h9.3v-8.4h2.8v20h-2.8v-9.2Z"/>
  <path class="st0" d="M17.1,38.4v-2.2l6.8-7.5c.7-.8,1.3-1.4,1.7-2,.4-.6.6-1.1.8-1.5.1-.5.2-1,.2-1.5,0-1-.2-1.8-.7-2.3-.5-.5-1.3-.7-2.3-.7s-1.9.3-2.5.9c-.6.6-.9,1.5-1,2.8h-2.7c0-1.9.7-3.4,1.8-4.5s2.6-1.6,4.5-1.6,3.5.5,4.5,1.5,1.4,2.3,1.4,4-.1,1.8-.4,2.5c-.3.7-.7,1.4-1.2,2.1-.5.7-1.2,1.5-2.1,2.3l-4.7,5.4h8.7v2.4h-12.6Z"/>
</svg>