<?xml version="1.0" encoding="UTF-8"?>
<svg id="Layer_1" data-name="Layer 1" xmlns="http://www.w3.org/2000/svg" version="1.1" viewBox="0 0 115.1 114.3">
  <defs>
    <style>
      .cls-1 {
        fill: #1a1a1a;
        stroke-width: 0px;
      }
    </style>
  </defs>
  <path class="cls-1" d="M106.8,0H38.1l-19,57.1h22.7c7.8,0,13.2-7.6,10.7-15l-10.7-31.4,4.4-2.9h0l30.8,29.9-19.5,19.3,12.9,38h0s-4.3,2.8-4.3,2.8l-28-21.5-28.3,28.1c-3.6,3.6-1.1,9.7,4,9.7h66.3l18.4-55c1.2-3.7-1.5-7.5-5.4-7.5s-9.5,0-9.5,0l28.2-42.4s.6-1,.8-1.6h0C113.8,4,110.9,0,106.8,0Z"/>
</svg>