<?xml version="1.0" encoding="UTF-8"?>
<svg id="Layer_1" data-name="Layer 1" xmlns="http://www.w3.org/2000/svg" version="1.1" viewBox="0 0 115.1 114.3">
  <defs>
    <style>
      .cls-1 {
        fill: #1a1a1a;
      }

      .cls-1, .cls-2 {
        stroke-width: 0px;
      }

      .cls-2 {
        fill: #ff6958;
      }
    </style>
  </defs>
  <path class="cls-2" d="M87.3,82.9l-.4,1.3c0-.2.4-1.1.4-1.3Z"/>
  <path class="cls-2" d="M87.3,82.8l-.4,1.3c0-.2.4-1.1.4-1.3Z"/>
  <path class="cls-2" d="M87.3,82.9l-.4,1.3c0-.2.4-1.1.4-1.3Z"/>
  <path class="cls-1" d="M107.2,23.9c-8.5,25.6-22,65.9-30.1,90.4H13.7c-5.1,0-7.6-6.1-4-9.7l42.4-42.1c-8.3,0-16.7,0-25,0s-8.3-4.8-6.7-9.3L38.1,0h41.1c0,0,2.6,7.5,2.6,7.5l-30.7,30.6s4.3,12.7,6.5,19l39.7-39.4c4.5-4.4,11.9.1,9.9,6.1Z"/>
  <path class="cls-2" d="M107.2,23.9s0,0,0,.1l-19.7,59s19.7-59.1,19.7-59.1Z"/>
  <path class="cls-2" d="M87.3,82.8l-.4,1.3c0-.2.4-1.1.4-1.3Z"/>
</svg>