<?xml version="1.0" encoding="UTF-8"?>
<svg id="Layer_1" data-name="Layer 1" xmlns="http://www.w3.org/2000/svg" version="1.1" viewBox="0 0 115.1 114.3">
  <defs>
    <style>
      .cls-1 {
        fill: #1a1a1a;
        stroke-width: 0px;
      }
    </style>
  </defs>
  <path class="cls-1" d="M46.2,7.9l-4.4,2.9,14,41h32.3c4.8,0,8.2,4.7,6.7,9.3-5.9,17.7-11.8,35.5-17.7,53.2H13.7c-5.1,0-7.6-6.1-4-9.7,14.1-14,28.2-28,42.4-42h-25c-4.8,0-8.3-4.8-6.7-9.3C26.1,36.1,38.1,0,38.1,0h63.3c5.1,0,7.6,6.1,4,9.7-9.4,9.3-18.8,18.6-28.2,28,0,0-.3.1-.4,0-10.2-9.9-20.4-19.9-30.6-29.8Z"/>
</svg>