<?xml version="1.0" encoding="UTF-8"?>
<svg id="Layer_1" data-name="Layer 1" xmlns="http://www.w3.org/2000/svg" version="1.1" viewBox="0 0 115.1 114.3">
  <defs>
    <style>
      .cls-1 {
        fill: #1a1a1a;
      }

      .cls-1, .cls-2 {
        stroke-width: 0px;
      }

      .cls-2 {
        fill: #ff6958;
      }
    </style>
  </defs>
  <path class="cls-2" d="M87.5,82.9l-.4,1.3c0-.2.4-1.1.4-1.3Z"/>
  <path class="cls-2" d="M87.5,82.9l-.4,1.3c0-.2.4-1.1.4-1.3Z"/>
  <polygon class="cls-2" points="57.5 57.2 57.6 57.2 57.5 57.2 57.5 57.2"/>
  <path class="cls-2" d="M57.6,57.2h0Z"/>
  <polygon class="cls-2" points="57.5 57.2 57.6 57.2 57.5 57.2 57.5 57.2"/>
  <path class="cls-2" d="M57.6,57.2h0Z"/>
  <path class="cls-2" d="M87.5,82.9l-.4,1.3c0-.2.4-1.1.4-1.3Z"/>
  <polygon class="cls-2" points="76.8 19.2 76.8 19.2 76.8 19.3 76.8 19.2 76.8 19.2 76.8 19.2"/>
  <path class="cls-2" d="M76.8,19.2h0Z"/>
  <polygon class="cls-2" points="76.8 19.2 76.8 19.2 76.8 19.3 76.8 19.2 76.8 19.2 76.8 19.2"/>
  <path class="cls-2" d="M76.8,19.2h0Z"/>
  <path class="cls-2" d="M76.8,19.2h0Z"/>
  <path class="cls-1" d="M107.3,0H38.1l-14.3,42.8c-.2.7-1.5,4.8,1,9,2.5,4.4,7,5.2,7.7,5.3h-7c-3.8,0-7.3,2.5-8.5,6.1-2.7,8.1-11.8,35.4-14.5,43.6-1.2,3.7,1.5,7.4,5.4,7.4h69.2l15.4-46.3c2-6.1-1-12.7-7-15.1l-2.8-1.1h8.7c3.8,0,7.3-2.5,8.5-6.1,2.9-8.8,8.5-25.5,12.8-38.2C113.8,3.8,111.1,0,107.3,0ZM38.1,98.7H15.7c12.5-12.4,25-24.8,37.4-37.2,1.8,5.1,5.5,15.3,5.5,15.3,0,0-20.5,21.9-20.5,21.9ZM57.6,57.1c-2.2-6.3-6.5-19-6.5-19l45.9-27.3,3.4,3.8c-14.3,14.2-28.5,28.3-42.8,42.5Z"/>
</svg>