<?xml version="1.0" encoding="UTF-8"?>
<svg id="Layer_1" data-name="Layer 1" xmlns="http://www.w3.org/2000/svg" version="1.1" viewBox="0 0 115.1 114.3">
  <defs>
    <style>
      .cls-1 {
        fill: #1a1a1a;
      }

      .cls-1, .cls-2 {
        stroke-width: 0px;
      }

      .cls-2 {
        fill: #ff6958;
      }
    </style>
  </defs>
  <path class="cls-2" d="M90.6,98.6l-.4,1.3c0-.2.4-1.1.4-1.3Z"/>
  <path class="cls-2" d="M87.6,82.9l-.4,1.3c0-.2.4-1.1.4-1.3Z"/>
  <path class="cls-2" d="M87.6,82.9l-.4,1.3c0-.2.4-1.1.4-1.3Z"/>
  <path class="cls-2" d="M87.6,82.9l-.4,1.3c0-.2.4-1.1.4-1.3Z"/>
  <path class="cls-1" d="M107.2,0H38.1c-3.6,10.9-12.9,38.6-17.8,53.2-1.5,4.6,1.9,9.3,6.7,9.3h32.3s9.4,27.5,11.1,32.5h0c0,0-4.3,2.9-4.3,2.9l-28-21.5-28.3,28.1c-2.2,2.2-2.1,5.3-.6,7.4,1,1.3,2.6,2.3,4.5,2.3h63.2S104.2,32.8,112.6,7.4C113.8,3.8,111.1,0,107.2,0ZM57.5,57.2c-2.2-6.3-4.3-12.7-6.5-19,15.3-9.1,30.6-18.2,45.9-27.3,1.1,1.3,2.2,2.6,3.3,3.9-14.2,14.1-28.5,28.3-42.7,42.5Z"/>
</svg>