<?xml version="1.0" encoding="UTF-8"?>
<svg id="Layer_1" xmlns="http://www.w3.org/2000/svg" version="1.1" viewBox="0 0 83.6 56.7">
  <!-- Generator: Adobe Illustrator 29.0.0, SVG Export Plug-In . SVG Version: 2.1.0 Build 186)  -->
  <defs>
    <style>
      .st0 {
        fill: #1a1a1a;
      }
    </style>
  </defs>
  <path class="st0" d="M807,150.6c-.6-.6-1.5-.6-2.4-.6h-3l-3,8.9v.2h1.1l1.3-3.7h2.9c2.2,0,3.3-.9,3.5-2.8,0-.9,0-1.5-.5-1.9h.1ZM806.3,152.5c-.2,1.3-.9,1.8-2.4,1.8h-2.5l1.1-3.2h2.2c.5,0,1,0,1.3.3.2.2.3.6.2,1.1h.1Z"/>
  <polygon class="st0" points="819.2 150 816.2 159 815 159 815.1 158.9 817.6 151.3 812.4 159 811.4 159 811.1 151.3 808.6 159 807.4 159 807.5 158.9 810.4 150 812.1 150 812.4 157.2 817.3 150 819.2 150"/>
  <path class="st0" d="M807,150.6c-.6-.6-1.5-.6-2.4-.6h-3l-3,8.9v.2h1.1l1.3-3.7h2.9c2.2,0,3.3-.9,3.5-2.8,0-.9,0-1.5-.5-1.9h.1ZM806.3,152.5c-.2,1.3-.9,1.8-2.4,1.8h-2.5l1.1-3.2h2.2c.5,0,1,0,1.3.3.2.2.3.6.2,1.1h.1Z"/>
  <polygon class="st0" points="819.2 150 816.2 159 815 159 815.1 158.9 817.6 151.3 812.4 159 811.4 159 811.1 151.3 808.6 159 807.4 159 807.5 158.9 810.4 150 812.1 150 812.4 157.2 817.3 150 819.2 150"/>
  <path class="st0" d="M807,150.6c-.6-.6-1.5-.6-2.4-.6h-3l-3,8.9v.2h1.1l1.3-3.7h2.9c2.2,0,3.3-.9,3.5-2.8,0-.9,0-1.5-.5-1.9h.1ZM806.3,152.5c-.2,1.3-.9,1.8-2.4,1.8h-2.5l1.1-3.2h2.2c.5,0,1,0,1.3.3.2.2.3.6.2,1.1h.1Z"/>
  <polygon class="st0" points="819.2 150 816.2 159 815 159 815.1 158.9 817.6 151.3 812.4 159 811.4 159 811.1 151.3 808.6 159 807.4 159 807.5 158.9 810.4 150 812.1 150 812.4 157.2 817.3 150 819.2 150"/>
  <g>
    <path d="M43.6,35v3.5h-2.5v-3.5h-7.9v-1.9l7.4-12.2h2.9v12h2.4v2.1h-2.4ZM41,32.9v-8.7l-5.3,8.7h5.3Z"/>
    <path d="M61.4,30.4h-8.2v8.1h-2.5v-17.6h2.5v7.4h8.2v-7.4h2.5v17.6h-2.5v-8.1Z"/>
    <path d="M20.3,38.4v-1.9l6-6.6c.6-.7,1.1-1.2,1.5-1.8.4-.5.5-1,.7-1.3,0-.4.2-.9.2-1.3,0-.9-.2-1.6-.6-2s-1.1-.6-2-.6-1.7.3-2.2.8-.8,1.3-.9,2.5h-2.4c0-1.7.6-3,1.6-4s2.3-1.4,4-1.4,3.1.4,4,1.3,1.2,2,1.2,3.5,0,1.6-.4,2.2-.6,1.2-1.1,1.9-1.1,1.3-1.9,2l-4.1,4.8h7.7v2.1h-11.3Z"/>
  </g>
</svg>