<?xml version="1.0" encoding="UTF-8"?>
<svg id="Layer_1" xmlns="http://www.w3.org/2000/svg" version="1.1" viewBox="0 0 83.6 56.7">
  <!-- Generator: Adobe Illustrator 29.0.0, SVG Export Plug-In . SVG Version: 2.1.0 Build 186)  -->
  <path d="M67.8,15.4"/>
  <path d="M67.8,15.4"/>
  <path d="M67.8,15.4"/>
  <path d="M67.8,15.4"/>
  <g>
    <path d="M34,31.5v6.8h-2.5v-17.5h5.1c4.2,0,6.2,1.8,6.2,4.9v1c0,3-2.3,4.8-6.2,4.8h-2.7,0ZM34,23v6.4h2.6c2.6,0,3.8-1.1,3.8-2.8v-.8c0-1.7-1.1-2.8-3.8-2.8h-2.6Z"/>
    <path d="M48.3,24.9v13.3h-2.4v-17.5h3.1l5.8,11.6,5.9-11.6h2.7v17.5h-2.4v-13.3l-5.4,10.2h-2s-5.4-10.2-5.4-10.2Z"/>
  </g>
</svg>