<?xml version="1.0" encoding="UTF-8"?>
<svg id="Layer_1" data-name="Layer 1" xmlns="http://www.w3.org/2000/svg" version="1.1" viewBox="0 0 723.1 723.1">
  <defs>
    <style>
      .cls-1 {
        fill: #333;
      }

      .cls-1, .cls-2, .cls-3 {
        stroke-width: 0px;
      }

      .cls-2, .cls-4, .cls-5, .cls-6 {
        fill: none;
      }

      .cls-4, .cls-5, .cls-6 {
        stroke-miterlimit: 10;
        stroke-width: 1.2px;
      }

      .cls-4, .cls-6 {
        stroke: #e0e0e0;
      }

      .cls-3 {
        fill: #e0e0e0;
      }

      .cls-5 {
        stroke: #333;
      }

      .cls-6 {
        stroke-opacity: 0;
      }
    </style>
  </defs>
  <rect class="cls-2" width="723.1" height="723.1"/>
  <path class="cls-3" d="M562,436.9v.6l-32,45.8h0s0,0,0,0c-.6,0-1.2,0-1.9,0v-46.4h9.3v23.1c-2.5,6.2-4.9,12.4-7.3,18.6,0,0,.4.2.6.3,9.8-14,19.6-28,29.5-42.1h1.9,0Z"/>
  <rect class="cls-3" x="518.8" y="436.9" width="2" height="46.4"/>
  <g>
    <path class="cls-3" d="M377.5,531.6v.7l-32,45.8h0s0,0,0,0c-.6,0-1.2,0-1.9,0v-46.4h9.3v23.1c-2.5,6.2-4.9,12.4-7.3,18.6,0,0,.4.2.6.3,9.8-14,19.6-28,29.5-42.1h1.9Z"/>
    <path class="cls-3" d="M390.2,531.6v.7l-32,45.8h-1.9v-.7l2.6-3.7,5.6-8c8-11.3,15.9-22.7,23.8-34.1h1.9Z"/>
  </g>
  <path class="cls-3" d="M220.3,237.6v.6l-2.6,3.7-5.6,8c-1.4,2-2.8,4-4.2,6v28h-9.1v-5.7c2.1-5.7,4.1-11.3,6.2-17l-.6-.3c-1.9,2.6-3.7,5.3-5.5,7.9-3.5,5-7,10-10.5,15h-1.9v-.7l12.4-17.7h0v-28h9.1v15.1l10.5-15.1s1.3,0,1.9,0Z"/>
  <path class="cls-3" d="M541.7,231.4v.6l-32,45.8h-1.9v-.6l2.6-3.7,5.6-8c8-11.4,15.9-22.7,23.8-34.1h1.9Z"/>
  <path class="cls-3" d="M210.7,432.4v.6l-32,45.8h0s0,0,0,0c-.6,0-1.2,0-1.9,0v-46.4h9.3v23.1c-2.4,6.2-4.9,12.4-7.3,18.6,0,0,.4.2.6.3,9.8-14,19.6-28,29.5-42.1h1.9Z"/>
  <path class="cls-3" d="M223.4,432.4v.6l-32,45.8h-1.9v-.6l2.6-3.7,5.6-8c7.9-11.4,15.9-22.7,23.8-34.1h1.9Z"/>
  <path class="cls-3" d="M461.4,191.7v1.5l-2.2,3.2h-4.2v-1.5c.8-1.1,1.5-2.1,2.2-3.2h4.2Z"/>
  <path class="cls-3" d="M553.8,358.3h1.5l3.2,2.2v4.2h-1.5c-1.1-.8-2.1-1.5-3.2-2.2v-4.2Z"/>
  <path class="cls-3" d="M455.5,527.6v1.5l2.2,3.2h4.2v-1.5c-.8-1.1-1.5-2.1-2.2-3.2h-4.2Z"/>
  <path class="cls-3" d="M260.9,532.4v-1.5l2.2-3.2h4.2v1.5c-.8,1.1-1.5,2.1-2.2,3.2h-4.2Z"/>
  <path class="cls-3" d="M164.5,359.2v1.5l2.2,3.2h4.2v-1.5c-.8-1.1-1.5-2.1-2.2-3.2h-4.2Z"/>
  <path class="cls-3" d="M261.3,190.2l-.2,1.4,1.7,3.5,4.2.7.2-1.4c-.6-1.2-1.1-2.3-1.7-3.5l-4.2-.7Z"/>
  <path class="cls-3" d="M394.2,144.8v.6l-32,45.8h-1.9v-.6l2.6-3.7,5.6-8c8-11.4,15.9-22.7,23.8-34.1h1.9s0,0,0,0Z"/>
  <path class="cls-3" d="M403.8,144.8v.6l-32,45.8h-1.9v-.6l2.6-3.7,5.6-8c8-11.4,15.9-22.7,23.8-34.1h1.9s0,0,0,0Z"/>
  <path class="cls-3" d="M551.3,231.4v.6l-32,45.8h-1.9v-.6l2.6-3.7,5.6-8c8-11.4,15.9-22.7,23.8-34.1h1.9,0Z"/>
  <path class="cls-3" d="M233.6,432.4v.6l-32,45.8h-1.9v-.6l2.6-3.7,5.6-8c7.9-11.4,15.9-22.7,23.8-34.1h1.9Z"/>
  <path class="cls-3" d="M243.2,432.4v.6l-32,45.8h-1.9v-.6l2.6-3.7,5.6-8c7.9-11.4,15.9-22.7,23.8-34.1h1.9Z"/>
  <g>
    <line class="cls-4" x1="361.5" y1="213.4" x2="361.5" y2="206.4"/>
    <line class="cls-4" x1="361.5" y1="516.7" x2="361.5" y2="509.7"/>
    <line class="cls-4" x1="233.2" y1="287.4" x2="227.2" y2="283.9"/>
    <line class="cls-4" x1="495.9" y1="439.1" x2="489.9" y2="435.6"/>
    <line class="cls-6" x1="233.2" y1="435.6" x2="227.2" y2="439.1"/>
    <line class="cls-4" x1="495.9" y1="283.9" x2="489.9" y2="287.4"/>
  </g>
  <circle class="cls-5" cx="361.5" cy="361.5" r=".2"/>
  <rect class="cls-3" x="360.6" y="222.9" width="2" height="174.5"/>
  <line class="cls-4" x1="361.5" y1="414" x2="361.5" y2="49.6"/>
  <g>
    <path class="cls-3" d="M365.8,260.9h-8.7v129.5c.1,0,8.8,0,8.8,0v-129.5ZM363.4,364.7l-4.6,1.3-.4-1.6,1.5-4.2,4.6-1.3.5,1.6c-.5,1.4-1,2.8-1.5,4.2Z"/>
    <path class="cls-1" d="M364.8,360.6c-.5,1.4-1,2.8-1.5,4.2l-4.6,1.3-.4-1.6,1.5-4.2,4.6-1.3.4,1.6Z"/>
  </g>
  <path class="cls-3" d="M369.9,144.8v.6l-2.6,3.7-5.6,8c-1.4,2-2.8,4-4.2,6v28h-9.1v-5.7c2.1-5.7,4.1-11.3,6.2-17l-.6-.3c-1.9,2.6-3.7,5.3-5.5,7.9-3.5,5-7,10-10.5,15h-1.9v-.7l12.4-17.7h0v-28h9.1v15.1l10.5-15.1s1.3,0,1.9,0Z"/>
</svg>